<?xml version="1.0" encoding="utf-8" standalone="no"?>
<!DOCTYPE svg PUBLIC "-//W3C//DTD SVG 1.1//EN"
  "http://www.w3.org/Graphics/SVG/1.1/DTD/svg11.dtd">
<svg xmlns:xlink="http://www.w3.org/1999/xlink" width="410.58pt" height="175.176pt" viewBox="0 0 410.58 175.176" xmlns="http://www.w3.org/2000/svg" version="1.1">
 <metadata>
  <rdf:RDF xmlns:dc="http://purl.org/dc/elements/1.1/" xmlns:cc="http://creativecommons.org/ns#" xmlns:rdf="http://www.w3.org/1999/02/22-rdf-syntax-ns#">
   <cc:Work>
    <dc:type rdf:resource="http://purl.org/dc/dcmitype/StillImage"/>
    <dc:date>2026-09-02T01:45:13.316741</dc:date>
    <dc:format>image/svg+xml</dc:format>
    <dc:creator>
     <cc:Agent>
      <dc:title>Matplotlib v3.10.9, https://matplotlib.org/</dc:title>
     </cc:Agent>
    </dc:creator>
   </cc:Work>
  </rdf:RDF>
 </metadata>
 <defs>
  <style type="text/css">*{stroke-linejoin: round; stroke-linecap: butt}</style>
 </defs>
 <g id="figure_1">
  <g id="patch_1">
   <path d="M 0 175.176 
L 410.58 175.176 
L 410.58 0 
L 0 0 
z
" style="fill: #ffffff"/>
  </g>
  <g id="axes_1">
   <g id="patch_2">
    <path d="M 13.53888 74.589089 
L 99.90612 74.589089 
Q 103.07556 74.589089 103.07556 71.852477 
L 103.07556 24.645906 
Q 103.07556 21.909294 99.90612 21.909294 
L 13.53888 21.909294 
Q 10.36944 21.909294 10.36944 24.645906 
L 10.36944 71.852477 
Q 10.36944 74.589089 13.53888 74.589089 
z
" clip-path="url(#p80094f13ea)" style="fill: #2a78d6"/>
   </g>
   <g id="patch_3">
    <path d="M 128.43108 47.222962 
L 198.95112 47.222962 
Q 202.12056 47.222962 202.12056 44.486349 
L 202.12056 22.935523 
Q 202.12056 20.198911 198.95112 20.198911 
L 128.43108 20.198911 
Q 125.26164 20.198911 125.26164 22.935523 
L 125.26164 44.486349 
Q 125.26164 47.222962 128.43108 47.222962 
z
" clip-path="url(#p80094f13ea)" style="fill: #1baf7a"/>
   </g>
   <g id="patch_4">
    <path d="M 128.43108 81.430621 
L 198.95112 81.430621 
Q 202.12056 81.430621 202.12056 78.694009 
L 202.12056 57.143183 
Q 202.12056 54.40657 198.95112 54.40657 
L 128.43108 54.40657 
Q 125.26164 54.40657 125.26164 57.143183 
L 125.26164 78.694009 
Q 125.26164 81.430621 128.43108 81.430621 
z
" clip-path="url(#p80094f13ea)" style="fill: #eb6834"/>
   </g>
   <g id="patch_5">
    <path d="M 128.43108 115.638281 
L 198.95112 115.638281 
Q 202.12056 115.638281 202.12056 112.901668 
L 202.12056 91.350843 
Q 202.12056 88.61423 198.95112 88.61423 
L 128.43108 88.61423 
Q 125.26164 88.61423 125.26164 91.350843 
L 125.26164 112.901668 
Q 125.26164 115.638281 128.43108 115.638281 
z
" clip-path="url(#p80094f13ea)" style="fill: #eda100"/>
   </g>
   <g id="patch_6">
    <path d="M 128.43108 149.84594 
L 198.95112 149.84594 
Q 202.12056 149.84594 202.12056 147.109328 
L 202.12056 125.558502 
Q 202.12056 122.821889 198.95112 122.821889 
L 128.43108 122.821889 
Q 125.26164 122.821889 125.26164 125.558502 
L 125.26164 147.109328 
Q 125.26164 149.84594 128.43108 149.84594 
z
" clip-path="url(#p80094f13ea)" style="fill: #4a3aa7"/>
   </g>
   <g id="patch_7">
    <path d="M 235.39968 47.222962 
L 305.91972 47.222962 
Q 309.08916 47.222962 309.08916 44.486349 
L 309.08916 22.935523 
Q 309.08916 20.198911 305.91972 20.198911 
L 235.39968 20.198911 
Q 232.23024 20.198911 232.23024 22.935523 
L 232.23024 44.486349 
Q 232.23024 47.222962 235.39968 47.222962 
z
" clip-path="url(#p80094f13ea)" style="fill: #52514e"/>
   </g>
   <g id="patch_8">
    <path d="M 235.39968 81.430621 
L 305.91972 81.430621 
Q 309.08916 81.430621 309.08916 78.694009 
L 309.08916 57.143183 
Q 309.08916 54.40657 305.91972 54.40657 
L 235.39968 54.40657 
Q 232.23024 54.40657 232.23024 57.143183 
L 232.23024 78.694009 
Q 232.23024 81.430621 235.39968 81.430621 
z
" clip-path="url(#p80094f13ea)" style="fill: #0b0b0b"/>
   </g>
   <g id="patch_9">
    <path d="M 235.39968 115.638281 
L 305.91972 115.638281 
Q 309.08916 115.638281 309.08916 112.901668 
L 309.08916 91.350843 
Q 309.08916 88.61423 305.91972 88.61423 
L 235.39968 88.61423 
Q 232.23024 88.61423 232.23024 91.350843 
L 232.23024 112.901668 
Q 232.23024 115.638281 235.39968 115.638281 
z
" clip-path="url(#p80094f13ea)" style="fill: #0b0b0b"/>
   </g>
   <g id="patch_10">
    <path d="M 235.39968 149.84594 
L 305.91972 149.84594 
Q 309.08916 149.84594 309.08916 147.109328 
L 309.08916 125.558502 
Q 309.08916 122.821889 305.91972 122.821889 
L 235.39968 122.821889 
Q 232.23024 122.821889 232.23024 125.558502 
L 232.23024 147.109328 
Q 232.23024 149.84594 235.39968 149.84594 
z
" clip-path="url(#p80094f13ea)" style="fill: #52514e"/>
   </g>
   <g id="patch_11">
    <path d="M 334.44468 143.004409 
L 393.07932 143.004409 
Q 396.24876 143.004409 396.24876 140.267796 
L 396.24876 110.165055 
Q 396.24876 107.428443 393.07932 107.428443 
L 334.44468 107.428443 
Q 331.27524 107.428443 331.27524 110.165055 
L 331.27524 140.267796 
Q 331.27524 143.004409 334.44468 143.004409 
z
" clip-path="url(#p80094f13ea)" style="fill: #2a78d6"/>
   </g>
   <g id="patch_12">
    <path d="M 334.44468 84.851387 
L 393.07932 84.851387 
Q 396.24876 84.851387 396.24876 82.114774 
L 396.24876 45.170502 
Q 396.24876 42.433889 393.07932 42.433889 
L 334.44468 42.433889 
Q 331.27524 42.433889 331.27524 45.170502 
L 331.27524 82.114774 
Q 331.27524 84.851387 334.44468 84.851387 
z
" clip-path="url(#p80094f13ea)" style="fill: #52514e"/>
   </g>
   <g id="line2d_1">
    <path d="M 56.7225 73.904936 
L 56.7225 159.424085 
L 363.762 159.424085 
" clip-path="url(#p80094f13ea)" style="fill: none; stroke: #2a78d6; stroke-width: 1.2; stroke-linecap: round"/>
   </g>
   <g id="text_1">
    <!-- CONTRACT -->
    <g style="fill: #ffffff" transform="translate(36.714188 34.710426) scale(0.066 -0.066)">
     <defs>
      <path id="DejaVuSans-Bold-43" d="M 4288 256 
Q 3956 84 3597 -3 
Q 3238 -91 2847 -91 
Q 1681 -91 1000 561 
Q 319 1213 319 2328 
Q 319 3447 1000 4098 
Q 1681 4750 2847 4750 
Q 3238 4750 3597 4662 
Q 3956 4575 4288 4403 
L 4288 3438 
Q 3953 3666 3628 3772 
Q 3303 3878 2944 3878 
Q 2300 3878 1931 3465 
Q 1563 3053 1563 2328 
Q 1563 1606 1931 1193 
Q 2300 781 2944 781 
Q 3303 781 3628 887 
Q 3953 994 4288 1222 
L 4288 256 
z
" transform="scale(0.015625)"/>
      <path id="DejaVuSans-Bold-4f" d="M 2719 3878 
Q 2169 3878 1866 3472 
Q 1563 3066 1563 2328 
Q 1563 1594 1866 1187 
Q 2169 781 2719 781 
Q 3272 781 3575 1187 
Q 3878 1594 3878 2328 
Q 3878 3066 3575 3472 
Q 3272 3878 2719 3878 
z
M 2719 4750 
Q 3844 4750 4481 4106 
Q 5119 3463 5119 2328 
Q 5119 1197 4481 553 
Q 3844 -91 2719 -91 
Q 1597 -91 958 553 
Q 319 1197 319 2328 
Q 319 3463 958 4106 
Q 1597 4750 2719 4750 
z
" transform="scale(0.015625)"/>
      <path id="DejaVuSans-Bold-4e" d="M 588 4666 
L 1931 4666 
L 3628 1466 
L 3628 4666 
L 4769 4666 
L 4769 0 
L 3425 0 
L 1728 3200 
L 1728 0 
L 588 0 
L 588 4666 
z
" transform="scale(0.015625)"/>
      <path id="DejaVuSans-Bold-54" d="M 31 4666 
L 4331 4666 
L 4331 3756 
L 2784 3756 
L 2784 0 
L 1581 0 
L 1581 3756 
L 31 3756 
L 31 4666 
z
" transform="scale(0.015625)"/>
      <path id="DejaVuSans-Bold-52" d="M 2297 2597 
Q 2675 2597 2839 2737 
Q 3003 2878 3003 3200 
Q 3003 3519 2839 3656 
Q 2675 3794 2297 3794 
L 1791 3794 
L 1791 2597 
L 2297 2597 
z
M 1791 1766 
L 1791 0 
L 588 0 
L 588 4666 
L 2425 4666 
Q 3347 4666 3776 4356 
Q 4206 4047 4206 3378 
Q 4206 2916 3982 2619 
Q 3759 2322 3309 2181 
Q 3556 2125 3751 1926 
Q 3947 1728 4147 1325 
L 4800 0 
L 3519 0 
L 2950 1159 
Q 2778 1509 2601 1637 
Q 2425 1766 2131 1766 
L 1791 1766 
z
" transform="scale(0.015625)"/>
      <path id="DejaVuSans-Bold-41" d="M 3419 850 
L 1538 850 
L 1241 0 
L 31 0 
L 1759 4666 
L 3194 4666 
L 4922 0 
L 3713 0 
L 3419 850 
z
M 1838 1716 
L 3116 1716 
L 2478 3572 
L 1838 1716 
z
" transform="scale(0.015625)"/>
     </defs>
     <use xlink:href="#DejaVuSans-Bold-43"/>
     <use xlink:href="#DejaVuSans-Bold-4f" transform="translate(73.388672 0)"/>
     <use xlink:href="#DejaVuSans-Bold-4e" transform="translate(158.398438 0)"/>
     <use xlink:href="#DejaVuSans-Bold-54" transform="translate(242.089844 0)"/>
     <use xlink:href="#DejaVuSans-Bold-52" transform="translate(310.302734 0)"/>
     <use xlink:href="#DejaVuSans-Bold-41" transform="translate(387.304688 0)"/>
     <use xlink:href="#DejaVuSans-Bold-43" transform="translate(464.697266 0)"/>
     <use xlink:href="#DejaVuSans-Bold-54" transform="translate(538.085938 0)"/>
    </g>
    <!-- contract.json -->
    <g style="fill: #ffffff" transform="translate(32.219484 42.351731) scale(0.066 -0.066)">
     <defs>
      <path id="DejaVuSans-Bold-63" d="M 3366 3391 
L 3366 2478 
Q 3138 2634 2908 2709 
Q 2678 2784 2431 2784 
Q 1963 2784 1702 2511 
Q 1441 2238 1441 1747 
Q 1441 1256 1702 982 
Q 1963 709 2431 709 
Q 2694 709 2930 787 
Q 3166 866 3366 1019 
L 3366 103 
Q 3103 6 2833 -42 
Q 2563 -91 2291 -91 
Q 1344 -91 809 395 
Q 275 881 275 1747 
Q 275 2613 809 3098 
Q 1344 3584 2291 3584 
Q 2566 3584 2833 3536 
Q 3100 3488 3366 3391 
z
" transform="scale(0.015625)"/>
      <path id="DejaVuSans-Bold-6f" d="M 2203 2784 
Q 1831 2784 1636 2517 
Q 1441 2250 1441 1747 
Q 1441 1244 1636 976 
Q 1831 709 2203 709 
Q 2569 709 2762 976 
Q 2956 1244 2956 1747 
Q 2956 2250 2762 2517 
Q 2569 2784 2203 2784 
z
M 2203 3584 
Q 3106 3584 3614 3096 
Q 4122 2609 4122 1747 
Q 4122 884 3614 396 
Q 3106 -91 2203 -91 
Q 1297 -91 786 396 
Q 275 884 275 1747 
Q 275 2609 786 3096 
Q 1297 3584 2203 3584 
z
" transform="scale(0.015625)"/>
      <path id="DejaVuSans-Bold-6e" d="M 4056 2131 
L 4056 0 
L 2931 0 
L 2931 347 
L 2931 1631 
Q 2931 2084 2911 2256 
Q 2891 2428 2841 2509 
Q 2775 2619 2662 2680 
Q 2550 2741 2406 2741 
Q 2056 2741 1856 2470 
Q 1656 2200 1656 1722 
L 1656 0 
L 538 0 
L 538 3500 
L 1656 3500 
L 1656 2988 
Q 1909 3294 2193 3439 
Q 2478 3584 2822 3584 
Q 3428 3584 3742 3212 
Q 4056 2841 4056 2131 
z
" transform="scale(0.015625)"/>
      <path id="DejaVuSans-Bold-74" d="M 1759 4494 
L 1759 3500 
L 2913 3500 
L 2913 2700 
L 1759 2700 
L 1759 1216 
Q 1759 972 1856 886 
Q 1953 800 2241 800 
L 2816 800 
L 2816 0 
L 1856 0 
Q 1194 0 917 276 
Q 641 553 641 1216 
L 641 2700 
L 84 2700 
L 84 3500 
L 641 3500 
L 641 4494 
L 1759 4494 
z
" transform="scale(0.015625)"/>
      <path id="DejaVuSans-Bold-72" d="M 3138 2547 
Q 2991 2616 2845 2648 
Q 2700 2681 2553 2681 
Q 2122 2681 1889 2404 
Q 1656 2128 1656 1613 
L 1656 0 
L 538 0 
L 538 3500 
L 1656 3500 
L 1656 2925 
Q 1872 3269 2151 3426 
Q 2431 3584 2822 3584 
Q 2878 3584 2943 3579 
Q 3009 3575 3134 3559 
L 3138 2547 
z
" transform="scale(0.015625)"/>
      <path id="DejaVuSans-Bold-61" d="M 2106 1575 
Q 1756 1575 1579 1456 
Q 1403 1338 1403 1106 
Q 1403 894 1545 773 
Q 1688 653 1941 653 
Q 2256 653 2472 879 
Q 2688 1106 2688 1447 
L 2688 1575 
L 2106 1575 
z
M 3816 1997 
L 3816 0 
L 2688 0 
L 2688 519 
Q 2463 200 2181 54 
Q 1900 -91 1497 -91 
Q 953 -91 614 226 
Q 275 544 275 1050 
Q 275 1666 698 1953 
Q 1122 2241 2028 2241 
L 2688 2241 
L 2688 2328 
Q 2688 2594 2478 2717 
Q 2269 2841 1825 2841 
Q 1466 2841 1156 2769 
Q 847 2697 581 2553 
L 581 3406 
Q 941 3494 1303 3539 
Q 1666 3584 2028 3584 
Q 2975 3584 3395 3211 
Q 3816 2838 3816 1997 
z
" transform="scale(0.015625)"/>
      <path id="DejaVuSans-Bold-2e" d="M 653 1209 
L 1778 1209 
L 1778 0 
L 653 0 
L 653 1209 
z
" transform="scale(0.015625)"/>
      <path id="DejaVuSans-Bold-6a" d="M 538 3500 
L 1656 3500 
L 1656 63 
Q 1656 -641 1318 -1011 
Q 981 -1381 341 -1381 
L -213 -1381 
L -213 -647 
L -19 -647 
Q 300 -647 419 -503 
Q 538 -359 538 63 
L 538 3500 
z
M 538 4863 
L 1656 4863 
L 1656 3950 
L 538 3950 
L 538 4863 
z
" transform="scale(0.015625)"/>
      <path id="DejaVuSans-Bold-73" d="M 3272 3391 
L 3272 2541 
Q 2913 2691 2578 2766 
Q 2244 2841 1947 2841 
Q 1628 2841 1473 2761 
Q 1319 2681 1319 2516 
Q 1319 2381 1436 2309 
Q 1553 2238 1856 2203 
L 2053 2175 
Q 2913 2066 3209 1816 
Q 3506 1566 3506 1031 
Q 3506 472 3093 190 
Q 2681 -91 1863 -91 
Q 1516 -91 1145 -36 
Q 775 19 384 128 
L 384 978 
Q 719 816 1070 734 
Q 1422 653 1784 653 
Q 2113 653 2278 743 
Q 2444 834 2444 1013 
Q 2444 1163 2330 1236 
Q 2216 1309 1875 1350 
L 1678 1375 
Q 931 1469 631 1722 
Q 331 1975 331 2491 
Q 331 3047 712 3315 
Q 1094 3584 1881 3584 
Q 2191 3584 2531 3537 
Q 2872 3491 3272 3391 
z
" transform="scale(0.015625)"/>
     </defs>
     <use xlink:href="#DejaVuSans-Bold-63"/>
     <use xlink:href="#DejaVuSans-Bold-6f" transform="translate(59.277344 0)"/>
     <use xlink:href="#DejaVuSans-Bold-6e" transform="translate(127.978516 0)"/>
     <use xlink:href="#DejaVuSans-Bold-74" transform="translate(199.169922 0)"/>
     <use xlink:href="#DejaVuSans-Bold-72" transform="translate(246.972656 0)"/>
     <use xlink:href="#DejaVuSans-Bold-61" transform="translate(296.289062 0)"/>
     <use xlink:href="#DejaVuSans-Bold-63" transform="translate(363.769531 0)"/>
     <use xlink:href="#DejaVuSans-Bold-74" transform="translate(423.046875 0)"/>
     <use xlink:href="#DejaVuSans-Bold-2e" transform="translate(470.849609 0)"/>
     <use xlink:href="#DejaVuSans-Bold-6a" transform="translate(508.837891 0)"/>
     <use xlink:href="#DejaVuSans-Bold-73" transform="translate(543.115234 0)"/>
     <use xlink:href="#DejaVuSans-Bold-6f" transform="translate(602.636719 0)"/>
     <use xlink:href="#DejaVuSans-Bold-6e" transform="translate(671.337891 0)"/>
    </g>
    <!-- prefix · header keys -->
    <g style="fill: #ffffff" transform="translate(19.595953 50.044598) scale(0.066 -0.066)">
     <defs>
      <path id="DejaVuSans-Bold-70" d="M 1656 506 
L 1656 -1331 
L 538 -1331 
L 538 3500 
L 1656 3500 
L 1656 2988 
Q 1888 3294 2169 3439 
Q 2450 3584 2816 3584 
Q 3463 3584 3878 3070 
Q 4294 2556 4294 1747 
Q 4294 938 3878 423 
Q 3463 -91 2816 -91 
Q 2450 -91 2169 54 
Q 1888 200 1656 506 
z
M 2400 2772 
Q 2041 2772 1848 2508 
Q 1656 2244 1656 1747 
Q 1656 1250 1848 986 
Q 2041 722 2400 722 
Q 2759 722 2948 984 
Q 3138 1247 3138 1747 
Q 3138 2247 2948 2509 
Q 2759 2772 2400 2772 
z
" transform="scale(0.015625)"/>
      <path id="DejaVuSans-Bold-65" d="M 4031 1759 
L 4031 1441 
L 1416 1441 
Q 1456 1047 1700 850 
Q 1944 653 2381 653 
Q 2734 653 3104 758 
Q 3475 863 3866 1075 
L 3866 213 
Q 3469 63 3072 -14 
Q 2675 -91 2278 -91 
Q 1328 -91 801 392 
Q 275 875 275 1747 
Q 275 2603 792 3093 
Q 1309 3584 2216 3584 
Q 3041 3584 3536 3087 
Q 4031 2591 4031 1759 
z
M 2881 2131 
Q 2881 2450 2695 2645 
Q 2509 2841 2209 2841 
Q 1884 2841 1681 2658 
Q 1478 2475 1428 2131 
L 2881 2131 
z
" transform="scale(0.015625)"/>
      <path id="DejaVuSans-Bold-66" d="M 2841 4863 
L 2841 4128 
L 2222 4128 
Q 1984 4128 1890 4042 
Q 1797 3956 1797 3744 
L 1797 3500 
L 2753 3500 
L 2753 2700 
L 1797 2700 
L 1797 0 
L 678 0 
L 678 2700 
L 122 2700 
L 122 3500 
L 678 3500 
L 678 3744 
Q 678 4316 997 4589 
Q 1316 4863 1984 4863 
L 2841 4863 
z
" transform="scale(0.015625)"/>
      <path id="DejaVuSans-Bold-69" d="M 538 3500 
L 1656 3500 
L 1656 0 
L 538 0 
L 538 3500 
z
M 538 4863 
L 1656 4863 
L 1656 3950 
L 538 3950 
L 538 4863 
z
" transform="scale(0.015625)"/>
      <path id="DejaVuSans-Bold-78" d="M 1422 1791 
L 159 3500 
L 1344 3500 
L 2059 2463 
L 2784 3500 
L 3969 3500 
L 2706 1797 
L 4031 0 
L 2847 0 
L 2059 1106 
L 1281 0 
L 97 0 
L 1422 1791 
z
" transform="scale(0.015625)"/>
      <path id="DejaVuSans-Bold-20" transform="scale(0.015625)"/>
      <path id="DejaVuSans-Bold-b7" d="M 653 2828 
L 1778 2828 
L 1778 1619 
L 653 1619 
L 653 2828 
z
" transform="scale(0.015625)"/>
      <path id="DejaVuSans-Bold-68" d="M 4056 2131 
L 4056 0 
L 2931 0 
L 2931 347 
L 2931 1625 
Q 2931 2084 2911 2256 
Q 2891 2428 2841 2509 
Q 2775 2619 2662 2680 
Q 2550 2741 2406 2741 
Q 2056 2741 1856 2470 
Q 1656 2200 1656 1722 
L 1656 0 
L 538 0 
L 538 4863 
L 1656 4863 
L 1656 2988 
Q 1909 3294 2193 3439 
Q 2478 3584 2822 3584 
Q 3428 3584 3742 3212 
Q 4056 2841 4056 2131 
z
" transform="scale(0.015625)"/>
      <path id="DejaVuSans-Bold-64" d="M 2919 2988 
L 2919 4863 
L 4044 4863 
L 4044 0 
L 2919 0 
L 2919 506 
Q 2688 197 2409 53 
Q 2131 -91 1766 -91 
Q 1119 -91 703 423 
Q 288 938 288 1747 
Q 288 2556 703 3070 
Q 1119 3584 1766 3584 
Q 2128 3584 2408 3439 
Q 2688 3294 2919 2988 
z
M 2181 722 
Q 2541 722 2730 984 
Q 2919 1247 2919 1747 
Q 2919 2247 2730 2509 
Q 2541 2772 2181 2772 
Q 1825 2772 1636 2509 
Q 1447 2247 1447 1747 
Q 1447 1247 1636 984 
Q 1825 722 2181 722 
z
" transform="scale(0.015625)"/>
      <path id="DejaVuSans-Bold-6b" d="M 538 4863 
L 1656 4863 
L 1656 2216 
L 2944 3500 
L 4244 3500 
L 2534 1894 
L 4378 0 
L 3022 0 
L 1656 1459 
L 1656 0 
L 538 0 
L 538 4863 
z
" transform="scale(0.015625)"/>
      <path id="DejaVuSans-Bold-79" d="M 78 3500 
L 1197 3500 
L 2138 1125 
L 2938 3500 
L 4056 3500 
L 2584 -331 
Q 2363 -916 2067 -1148 
Q 1772 -1381 1288 -1381 
L 641 -1381 
L 641 -647 
L 991 -647 
Q 1275 -647 1404 -556 
Q 1534 -466 1606 -231 
L 1638 -134 
L 78 3500 
z
" transform="scale(0.015625)"/>
     </defs>
     <use xlink:href="#DejaVuSans-Bold-70"/>
     <use xlink:href="#DejaVuSans-Bold-72" transform="translate(71.582031 0)"/>
     <use xlink:href="#DejaVuSans-Bold-65" transform="translate(120.898438 0)"/>
     <use xlink:href="#DejaVuSans-Bold-66" transform="translate(188.720703 0)"/>
     <use xlink:href="#DejaVuSans-Bold-69" transform="translate(232.226562 0)"/>
     <use xlink:href="#DejaVuSans-Bold-78" transform="translate(266.503906 0)"/>
     <use xlink:href="#DejaVuSans-Bold-20" transform="translate(331.005859 0)"/>
     <use xlink:href="#DejaVuSans-Bold-b7" transform="translate(365.820312 0)"/>
     <use xlink:href="#DejaVuSans-Bold-20" transform="translate(403.808594 0)"/>
     <use xlink:href="#DejaVuSans-Bold-68" transform="translate(438.623047 0)"/>
     <use xlink:href="#DejaVuSans-Bold-65" transform="translate(509.814453 0)"/>
     <use xlink:href="#DejaVuSans-Bold-61" transform="translate(577.636719 0)"/>
     <use xlink:href="#DejaVuSans-Bold-64" transform="translate(645.117188 0)"/>
     <use xlink:href="#DejaVuSans-Bold-65" transform="translate(716.699219 0)"/>
     <use xlink:href="#DejaVuSans-Bold-72" transform="translate(784.521484 0)"/>
     <use xlink:href="#DejaVuSans-Bold-20" transform="translate(833.837891 0)"/>
     <use xlink:href="#DejaVuSans-Bold-6b" transform="translate(868.652344 0)"/>
     <use xlink:href="#DejaVuSans-Bold-65" transform="translate(932.53125 0)"/>
     <use xlink:href="#DejaVuSans-Bold-79" transform="translate(1000.353516 0)"/>
     <use xlink:href="#DejaVuSans-Bold-73" transform="translate(1065.539062 0)"/>
    </g>
    <!-- core fields · extensions -->
    <g style="fill: #ffffff" transform="translate(13.463625 57.737465) scale(0.066 -0.066)">
     <defs>
      <path id="DejaVuSans-Bold-6c" d="M 538 4863 
L 1656 4863 
L 1656 0 
L 538 0 
L 538 4863 
z
" transform="scale(0.015625)"/>
     </defs>
     <use xlink:href="#DejaVuSans-Bold-63"/>
     <use xlink:href="#DejaVuSans-Bold-6f" transform="translate(59.277344 0)"/>
     <use xlink:href="#DejaVuSans-Bold-72" transform="translate(127.978516 0)"/>
     <use xlink:href="#DejaVuSans-Bold-65" transform="translate(177.294922 0)"/>
     <use xlink:href="#DejaVuSans-Bold-20" transform="translate(245.117188 0)"/>
     <use xlink:href="#DejaVuSans-Bold-66" transform="translate(279.931641 0)"/>
     <use xlink:href="#DejaVuSans-Bold-69" transform="translate(323.4375 0)"/>
     <use xlink:href="#DejaVuSans-Bold-65" transform="translate(357.714844 0)"/>
     <use xlink:href="#DejaVuSans-Bold-6c" transform="translate(425.537109 0)"/>
     <use xlink:href="#DejaVuSans-Bold-64" transform="translate(459.814453 0)"/>
     <use xlink:href="#DejaVuSans-Bold-73" transform="translate(531.396484 0)"/>
     <use xlink:href="#DejaVuSans-Bold-20" transform="translate(590.917969 0)"/>
     <use xlink:href="#DejaVuSans-Bold-b7" transform="translate(625.732422 0)"/>
     <use xlink:href="#DejaVuSans-Bold-20" transform="translate(663.720703 0)"/>
     <use xlink:href="#DejaVuSans-Bold-65" transform="translate(698.535156 0)"/>
     <use xlink:href="#DejaVuSans-Bold-78" transform="translate(766.357422 0)"/>
     <use xlink:href="#DejaVuSans-Bold-74" transform="translate(830.859375 0)"/>
     <use xlink:href="#DejaVuSans-Bold-65" transform="translate(878.662109 0)"/>
     <use xlink:href="#DejaVuSans-Bold-6e" transform="translate(946.484375 0)"/>
     <use xlink:href="#DejaVuSans-Bold-73" transform="translate(1017.675781 0)"/>
     <use xlink:href="#DejaVuSans-Bold-69" transform="translate(1077.197266 0)"/>
     <use xlink:href="#DejaVuSans-Bold-6f" transform="translate(1111.474609 0)"/>
     <use xlink:href="#DejaVuSans-Bold-6e" transform="translate(1180.175781 0)"/>
     <use xlink:href="#DejaVuSans-Bold-73" transform="translate(1251.367188 0)"/>
    </g>
    <!-- types · arity · markers -->
    <g style="fill: #ffffff" transform="translate(15.382781 65.37877) scale(0.066 -0.066)">
     <defs>
      <path id="DejaVuSans-Bold-6d" d="M 3781 2919 
Q 3994 3244 4286 3414 
Q 4578 3584 4928 3584 
Q 5531 3584 5847 3212 
Q 6163 2841 6163 2131 
L 6163 0 
L 5038 0 
L 5038 1825 
Q 5041 1866 5042 1909 
Q 5044 1953 5044 2034 
Q 5044 2406 4934 2573 
Q 4825 2741 4581 2741 
Q 4263 2741 4089 2478 
Q 3916 2216 3909 1719 
L 3909 0 
L 2784 0 
L 2784 1825 
Q 2784 2406 2684 2573 
Q 2584 2741 2328 2741 
Q 2006 2741 1831 2477 
Q 1656 2213 1656 1722 
L 1656 0 
L 531 0 
L 531 3500 
L 1656 3500 
L 1656 2988 
Q 1863 3284 2130 3434 
Q 2397 3584 2719 3584 
Q 3081 3584 3359 3409 
Q 3638 3234 3781 2919 
z
" transform="scale(0.015625)"/>
     </defs>
     <use xlink:href="#DejaVuSans-Bold-74"/>
     <use xlink:href="#DejaVuSans-Bold-79" transform="translate(47.802734 0)"/>
     <use xlink:href="#DejaVuSans-Bold-70" transform="translate(112.988281 0)"/>
     <use xlink:href="#DejaVuSans-Bold-65" transform="translate(184.570312 0)"/>
     <use xlink:href="#DejaVuSans-Bold-73" transform="translate(252.392578 0)"/>
     <use xlink:href="#DejaVuSans-Bold-20" transform="translate(311.914062 0)"/>
     <use xlink:href="#DejaVuSans-Bold-b7" transform="translate(346.728516 0)"/>
     <use xlink:href="#DejaVuSans-Bold-20" transform="translate(384.716797 0)"/>
     <use xlink:href="#DejaVuSans-Bold-61" transform="translate(419.53125 0)"/>
     <use xlink:href="#DejaVuSans-Bold-72" transform="translate(487.011719 0)"/>
     <use xlink:href="#DejaVuSans-Bold-69" transform="translate(536.328125 0)"/>
     <use xlink:href="#DejaVuSans-Bold-74" transform="translate(570.605469 0)"/>
     <use xlink:href="#DejaVuSans-Bold-79" transform="translate(618.408203 0)"/>
     <use xlink:href="#DejaVuSans-Bold-20" transform="translate(683.59375 0)"/>
     <use xlink:href="#DejaVuSans-Bold-b7" transform="translate(718.408203 0)"/>
     <use xlink:href="#DejaVuSans-Bold-20" transform="translate(756.396484 0)"/>
     <use xlink:href="#DejaVuSans-Bold-6d" transform="translate(791.210938 0)"/>
     <use xlink:href="#DejaVuSans-Bold-61" transform="translate(895.410156 0)"/>
     <use xlink:href="#DejaVuSans-Bold-72" transform="translate(962.890625 0)"/>
     <use xlink:href="#DejaVuSans-Bold-6b" transform="translate(1012.207031 0)"/>
     <use xlink:href="#DejaVuSans-Bold-65" transform="translate(1076.085938 0)"/>
     <use xlink:href="#DejaVuSans-Bold-72" transform="translate(1143.908203 0)"/>
     <use xlink:href="#DejaVuSans-Bold-73" transform="translate(1193.224609 0)"/>
    </g>
   </g>
   <g id="text_2">
    <!-- spec block -->
    <g style="fill: #ffffff" transform="translate(143.516881 31.650881) scale(0.068 -0.068)">
     <defs>
      <path id="DejaVuSans-Bold-62" d="M 2400 722 
Q 2759 722 2948 984 
Q 3138 1247 3138 1747 
Q 3138 2247 2948 2509 
Q 2759 2772 2400 2772 
Q 2041 2772 1848 2508 
Q 1656 2244 1656 1747 
Q 1656 1250 1848 986 
Q 2041 722 2400 722 
z
M 1656 2988 
Q 1888 3294 2169 3439 
Q 2450 3584 2816 3584 
Q 3463 3584 3878 3070 
Q 4294 2556 4294 1747 
Q 4294 938 3878 423 
Q 3463 -91 2816 -91 
Q 2450 -91 2169 54 
Q 1888 200 1656 506 
L 1656 0 
L 538 0 
L 538 4863 
L 1656 4863 
L 1656 2988 
z
" transform="scale(0.015625)"/>
     </defs>
     <use xlink:href="#DejaVuSans-Bold-73"/>
     <use xlink:href="#DejaVuSans-Bold-70" transform="translate(59.521484 0)"/>
     <use xlink:href="#DejaVuSans-Bold-65" transform="translate(131.103516 0)"/>
     <use xlink:href="#DejaVuSans-Bold-63" transform="translate(198.925781 0)"/>
     <use xlink:href="#DejaVuSans-Bold-20" transform="translate(258.203125 0)"/>
     <use xlink:href="#DejaVuSans-Bold-62" transform="translate(293.017578 0)"/>
     <use xlink:href="#DejaVuSans-Bold-6c" transform="translate(364.599609 0)"/>
     <use xlink:href="#DejaVuSans-Bold-6f" transform="translate(398.876953 0)"/>
     <use xlink:href="#DejaVuSans-Bold-63" transform="translate(467.578125 0)"/>
     <use xlink:href="#DejaVuSans-Bold-6b" transform="translate(526.855469 0)"/>
    </g>
    <!-- (mini prompt) -->
    <g style="fill: #ffffff" transform="translate(137.057412 39.523741) scale(0.068 -0.068)">
     <defs>
      <path id="DejaVuSans-Bold-28" d="M 2413 -844 
L 1484 -844 
Q 1006 -72 778 623 
Q 550 1319 550 2003 
Q 550 2688 779 3389 
Q 1009 4091 1484 4856 
L 2413 4856 
Q 2013 4116 1813 3408 
Q 1613 2700 1613 2009 
Q 1613 1319 1811 609 
Q 2009 -100 2413 -844 
z
" transform="scale(0.015625)"/>
      <path id="DejaVuSans-Bold-29" d="M 513 -844 
Q 913 -100 1113 609 
Q 1313 1319 1313 2009 
Q 1313 2700 1113 3408 
Q 913 4116 513 4856 
L 1441 4856 
Q 1916 4091 2145 3389 
Q 2375 2688 2375 2003 
Q 2375 1319 2147 623 
Q 1919 -72 1441 -844 
L 513 -844 
z
" transform="scale(0.015625)"/>
     </defs>
     <use xlink:href="#DejaVuSans-Bold-28"/>
     <use xlink:href="#DejaVuSans-Bold-6d" transform="translate(45.703125 0)"/>
     <use xlink:href="#DejaVuSans-Bold-69" transform="translate(149.902344 0)"/>
     <use xlink:href="#DejaVuSans-Bold-6e" transform="translate(184.179688 0)"/>
     <use xlink:href="#DejaVuSans-Bold-69" transform="translate(255.371094 0)"/>
     <use xlink:href="#DejaVuSans-Bold-20" transform="translate(289.648438 0)"/>
     <use xlink:href="#DejaVuSans-Bold-70" transform="translate(324.462891 0)"/>
     <use xlink:href="#DejaVuSans-Bold-72" transform="translate(396.044922 0)"/>
     <use xlink:href="#DejaVuSans-Bold-6f" transform="translate(445.361328 0)"/>
     <use xlink:href="#DejaVuSans-Bold-6d" transform="translate(514.0625 0)"/>
     <use xlink:href="#DejaVuSans-Bold-70" transform="translate(618.261719 0)"/>
     <use xlink:href="#DejaVuSans-Bold-74" transform="translate(689.84375 0)"/>
     <use xlink:href="#DejaVuSans-Bold-29" transform="translate(737.646484 0)"/>
    </g>
   </g>
   <g id="text_3">
    <!-- parser -->
    <g style="fill: #ffffff" transform="translate(151.280037 65.858541) scale(0.068 -0.068)">
     <use xlink:href="#DejaVuSans-Bold-70"/>
     <use xlink:href="#DejaVuSans-Bold-61" transform="translate(71.582031 0)"/>
     <use xlink:href="#DejaVuSans-Bold-72" transform="translate(139.0625 0)"/>
     <use xlink:href="#DejaVuSans-Bold-73" transform="translate(188.378906 0)"/>
     <use xlink:href="#DejaVuSans-Bold-65" transform="translate(247.900391 0)"/>
     <use xlink:href="#DejaVuSans-Bold-72" transform="translate(315.722656 0)"/>
    </g>
    <!-- (interpreted) -->
    <g style="fill: #ffffff" transform="translate(138.608131 73.7314) scale(0.068 -0.068)">
     <use xlink:href="#DejaVuSans-Bold-28"/>
     <use xlink:href="#DejaVuSans-Bold-69" transform="translate(45.703125 0)"/>
     <use xlink:href="#DejaVuSans-Bold-6e" transform="translate(79.980469 0)"/>
     <use xlink:href="#DejaVuSans-Bold-74" transform="translate(151.171875 0)"/>
     <use xlink:href="#DejaVuSans-Bold-65" transform="translate(198.974609 0)"/>
     <use xlink:href="#DejaVuSans-Bold-72" transform="translate(266.796875 0)"/>
     <use xlink:href="#DejaVuSans-Bold-70" transform="translate(316.113281 0)"/>
     <use xlink:href="#DejaVuSans-Bold-72" transform="translate(387.695312 0)"/>
     <use xlink:href="#DejaVuSans-Bold-65" transform="translate(437.011719 0)"/>
     <use xlink:href="#DejaVuSans-Bold-74" transform="translate(504.833984 0)"/>
     <use xlink:href="#DejaVuSans-Bold-65" transform="translate(552.636719 0)"/>
     <use xlink:href="#DejaVuSans-Bold-64" transform="translate(620.458984 0)"/>
     <use xlink:href="#DejaVuSans-Bold-29" transform="translate(692.041016 0)"/>
    </g>
   </g>
   <g id="text_4">
    <!-- serializer -->
    <g style="fill: #0b0b0b" transform="translate(145.931944 100.066201) scale(0.068 -0.068)">
     <defs>
      <path id="DejaVuSans-Bold-7a" d="M 366 3500 
L 3419 3500 
L 3419 2719 
L 1575 800 
L 3419 800 
L 3419 0 
L 288 0 
L 288 781 
L 2131 2700 
L 366 2700 
L 366 3500 
z
" transform="scale(0.015625)"/>
     </defs>
     <use xlink:href="#DejaVuSans-Bold-73"/>
     <use xlink:href="#DejaVuSans-Bold-65" transform="translate(59.521484 0)"/>
     <use xlink:href="#DejaVuSans-Bold-72" transform="translate(127.34375 0)"/>
     <use xlink:href="#DejaVuSans-Bold-69" transform="translate(176.660156 0)"/>
     <use xlink:href="#DejaVuSans-Bold-61" transform="translate(210.9375 0)"/>
     <use xlink:href="#DejaVuSans-Bold-6c" transform="translate(278.417969 0)"/>
     <use xlink:href="#DejaVuSans-Bold-69" transform="translate(312.695312 0)"/>
     <use xlink:href="#DejaVuSans-Bold-7a" transform="translate(346.972656 0)"/>
     <use xlink:href="#DejaVuSans-Bold-65" transform="translate(405.175781 0)"/>
     <use xlink:href="#DejaVuSans-Bold-72" transform="translate(472.998047 0)"/>
    </g>
    <!-- (interpreted) -->
    <g style="fill: #0b0b0b" transform="translate(138.608131 107.93906) scale(0.068 -0.068)">
     <use xlink:href="#DejaVuSans-Bold-28"/>
     <use xlink:href="#DejaVuSans-Bold-69" transform="translate(45.703125 0)"/>
     <use xlink:href="#DejaVuSans-Bold-6e" transform="translate(79.980469 0)"/>
     <use xlink:href="#DejaVuSans-Bold-74" transform="translate(151.171875 0)"/>
     <use xlink:href="#DejaVuSans-Bold-65" transform="translate(198.974609 0)"/>
     <use xlink:href="#DejaVuSans-Bold-72" transform="translate(266.796875 0)"/>
     <use xlink:href="#DejaVuSans-Bold-70" transform="translate(316.113281 0)"/>
     <use xlink:href="#DejaVuSans-Bold-72" transform="translate(387.695312 0)"/>
     <use xlink:href="#DejaVuSans-Bold-65" transform="translate(437.011719 0)"/>
     <use xlink:href="#DejaVuSans-Bold-74" transform="translate(504.833984 0)"/>
     <use xlink:href="#DejaVuSans-Bold-65" transform="translate(552.636719 0)"/>
     <use xlink:href="#DejaVuSans-Bold-64" transform="translate(620.458984 0)"/>
     <use xlink:href="#DejaVuSans-Bold-29" transform="translate(692.041016 0)"/>
    </g>
   </g>
   <g id="text_5">
    <!-- fork checker -->
    <g style="fill: #ffffff" transform="translate(139.842756 134.27386) scale(0.068 -0.068)">
     <use xlink:href="#DejaVuSans-Bold-66"/>
     <use xlink:href="#DejaVuSans-Bold-6f" transform="translate(43.505859 0)"/>
     <use xlink:href="#DejaVuSans-Bold-72" transform="translate(112.207031 0)"/>
     <use xlink:href="#DejaVuSans-Bold-6b" transform="translate(161.523438 0)"/>
     <use xlink:href="#DejaVuSans-Bold-20" transform="translate(228.027344 0)"/>
     <use xlink:href="#DejaVuSans-Bold-63" transform="translate(262.841797 0)"/>
     <use xlink:href="#DejaVuSans-Bold-68" transform="translate(322.119141 0)"/>
     <use xlink:href="#DejaVuSans-Bold-65" transform="translate(393.310547 0)"/>
     <use xlink:href="#DejaVuSans-Bold-63" transform="translate(461.132812 0)"/>
     <use xlink:href="#DejaVuSans-Bold-6b" transform="translate(520.410156 0)"/>
     <use xlink:href="#DejaVuSans-Bold-65" transform="translate(584.289062 0)"/>
     <use xlink:href="#DejaVuSans-Bold-72" transform="translate(652.111328 0)"/>
    </g>
    <!-- I1–I5 -->
    <g style="fill: #ffffff" transform="translate(154.729975 142.14672) scale(0.068 -0.068)">
     <defs>
      <path id="DejaVuSans-Bold-49" d="M 588 4666 
L 1791 4666 
L 1791 0 
L 588 0 
L 588 4666 
z
" transform="scale(0.015625)"/>
      <path id="DejaVuSans-Bold-31" d="M 750 831 
L 1813 831 
L 1813 3847 
L 722 3622 
L 722 4441 
L 1806 4666 
L 2950 4666 
L 2950 831 
L 4013 831 
L 4013 0 
L 750 0 
L 750 831 
z
" transform="scale(0.015625)"/>
      <path id="DejaVuSans-Bold-2013" d="M 344 2156 
L 2856 2156 
L 2856 1350 
L 344 1350 
L 344 2156 
z
" transform="scale(0.015625)"/>
      <path id="DejaVuSans-Bold-35" d="M 678 4666 
L 3669 4666 
L 3669 3781 
L 1638 3781 
L 1638 3059 
Q 1775 3097 1914 3117 
Q 2053 3138 2203 3138 
Q 3056 3138 3531 2711 
Q 4006 2284 4006 1522 
Q 4006 766 3489 337 
Q 2972 -91 2053 -91 
Q 1656 -91 1267 -14 
Q 878 63 494 219 
L 494 1166 
Q 875 947 1217 837 
Q 1559 728 1863 728 
Q 2300 728 2551 942 
Q 2803 1156 2803 1522 
Q 2803 1891 2551 2103 
Q 2300 2316 1863 2316 
Q 1603 2316 1309 2248 
Q 1016 2181 678 2041 
L 678 4666 
z
" transform="scale(0.015625)"/>
     </defs>
     <use xlink:href="#DejaVuSans-Bold-49"/>
     <use xlink:href="#DejaVuSans-Bold-31" transform="translate(37.207031 0)"/>
     <use xlink:href="#DejaVuSans-Bold-2013" transform="translate(106.787109 0)"/>
     <use xlink:href="#DejaVuSans-Bold-49" transform="translate(156.787109 0)"/>
     <use xlink:href="#DejaVuSans-Bold-35" transform="translate(193.994141 0)"/>
    </g>
   </g>
   <g id="patch_13">
    <path d="M 103.986503 47.207449 
Q 114.167668 40.980634 123.395043 35.337158 
" style="fill: none; stroke: #52514e; stroke-linecap: round"/>
    <path d="M 119.83033 35.641819 
L 123.395043 35.337158 
L 121.499944 38.371725 
z
" style="fill: #52514e; stroke: #52514e; stroke-linecap: round"/>
   </g>
   <g id="patch_14">
    <path d="M 103.824007 49.524149 
Q 114.169692 58.084797 123.653996 65.932687 
" style="fill: none; stroke: #52514e; stroke-linecap: round"/>
    <path d="M 122.208599 62.659947 
L 123.653996 65.932687 
L 120.168566 65.12536 
z
" style="fill: #52514e; stroke: #52514e; stroke-linecap: round"/>
   </g>
   <g id="patch_15">
    <path d="M 103.091326 50.080828 
Q 114.168321 75.187092 124.79401 99.270458 
" style="fill: none; stroke: #52514e; stroke-linecap: round"/>
    <path d="M 124.966146 95.696893 
L 124.79401 99.270458 
L 122.038439 96.98861 
z
" style="fill: #52514e; stroke: #52514e; stroke-linecap: round"/>
   </g>
   <g id="patch_16">
    <path d="M 102.804782 50.181959 
Q 114.168646 92.291725 125.241215 133.322071 
" style="fill: none; stroke: #52514e; stroke-linecap: round"/>
    <path d="M 125.952219 129.815723 
L 125.241215 133.322071 
L 122.862739 130.649459 
z
" style="fill: #52514e; stroke: #52514e; stroke-linecap: round"/>
   </g>
   <g id="text_6">
    <!-- generative model -->
    <g style="fill: #ffffff" transform="translate(236.941263 31.597756) scale(0.068 -0.068)">
     <defs>
      <path id="DejaVuSans-Bold-67" d="M 2919 594 
Q 2688 288 2409 144 
Q 2131 0 1766 0 
Q 1125 0 706 504 
Q 288 1009 288 1791 
Q 288 2575 706 3076 
Q 1125 3578 1766 3578 
Q 2131 3578 2409 3434 
Q 2688 3291 2919 2981 
L 2919 3500 
L 4044 3500 
L 4044 353 
Q 4044 -491 3511 -936 
Q 2978 -1381 1966 -1381 
Q 1638 -1381 1331 -1331 
Q 1025 -1281 716 -1178 
L 716 -306 
Q 1009 -475 1290 -558 
Q 1572 -641 1856 -641 
Q 2406 -641 2662 -400 
Q 2919 -159 2919 353 
L 2919 594 
z
M 2181 2772 
Q 1834 2772 1640 2515 
Q 1447 2259 1447 1791 
Q 1447 1309 1634 1061 
Q 1822 813 2181 813 
Q 2531 813 2725 1069 
Q 2919 1325 2919 1791 
Q 2919 2259 2725 2515 
Q 2531 2772 2181 2772 
z
" transform="scale(0.015625)"/>
      <path id="DejaVuSans-Bold-76" d="M 97 3500 
L 1216 3500 
L 2088 1081 
L 2956 3500 
L 4078 3500 
L 2700 0 
L 1472 0 
L 97 3500 
z
" transform="scale(0.015625)"/>
     </defs>
     <use xlink:href="#DejaVuSans-Bold-67"/>
     <use xlink:href="#DejaVuSans-Bold-65" transform="translate(71.582031 0)"/>
     <use xlink:href="#DejaVuSans-Bold-6e" transform="translate(139.404297 0)"/>
     <use xlink:href="#DejaVuSans-Bold-65" transform="translate(210.595703 0)"/>
     <use xlink:href="#DejaVuSans-Bold-72" transform="translate(278.417969 0)"/>
     <use xlink:href="#DejaVuSans-Bold-61" transform="translate(327.734375 0)"/>
     <use xlink:href="#DejaVuSans-Bold-74" transform="translate(395.214844 0)"/>
     <use xlink:href="#DejaVuSans-Bold-69" transform="translate(443.017578 0)"/>
     <use xlink:href="#DejaVuSans-Bold-76" transform="translate(477.294922 0)"/>
     <use xlink:href="#DejaVuSans-Bold-65" transform="translate(542.480469 0)"/>
     <use xlink:href="#DejaVuSans-Bold-20" transform="translate(610.302734 0)"/>
     <use xlink:href="#DejaVuSans-Bold-6d" transform="translate(645.117188 0)"/>
     <use xlink:href="#DejaVuSans-Bold-6f" transform="translate(749.316406 0)"/>
     <use xlink:href="#DejaVuSans-Bold-64" transform="translate(818.017578 0)"/>
     <use xlink:href="#DejaVuSans-Bold-65" transform="translate(889.599609 0)"/>
     <use xlink:href="#DejaVuSans-Bold-6c" transform="translate(957.421875 0)"/>
    </g>
    <!-- (any provider) -->
    <g style="fill: #ffffff" transform="translate(243.192481 39.523741) scale(0.068 -0.068)">
     <use xlink:href="#DejaVuSans-Bold-28"/>
     <use xlink:href="#DejaVuSans-Bold-61" transform="translate(45.703125 0)"/>
     <use xlink:href="#DejaVuSans-Bold-6e" transform="translate(113.183594 0)"/>
     <use xlink:href="#DejaVuSans-Bold-79" transform="translate(184.375 0)"/>
     <use xlink:href="#DejaVuSans-Bold-20" transform="translate(249.560547 0)"/>
     <use xlink:href="#DejaVuSans-Bold-70" transform="translate(284.375 0)"/>
     <use xlink:href="#DejaVuSans-Bold-72" transform="translate(355.957031 0)"/>
     <use xlink:href="#DejaVuSans-Bold-6f" transform="translate(405.273438 0)"/>
     <use xlink:href="#DejaVuSans-Bold-76" transform="translate(473.974609 0)"/>
     <use xlink:href="#DejaVuSans-Bold-69" transform="translate(539.160156 0)"/>
     <use xlink:href="#DejaVuSans-Bold-64" transform="translate(573.4375 0)"/>
     <use xlink:href="#DejaVuSans-Bold-65" transform="translate(645.019531 0)"/>
     <use xlink:href="#DejaVuSans-Bold-72" transform="translate(712.841797 0)"/>
     <use xlink:href="#DejaVuSans-Bold-29" transform="translate(762.158203 0)"/>
    </g>
   </g>
   <g id="text_7">
    <!-- .mini document -->
    <g style="fill: #ffffff" transform="translate(240.790169 65.858541) scale(0.068 -0.068)">
     <defs>
      <path id="DejaVuSans-Bold-75" d="M 500 1363 
L 500 3500 
L 1625 3500 
L 1625 3150 
Q 1625 2866 1622 2436 
Q 1619 2006 1619 1863 
Q 1619 1441 1641 1255 
Q 1663 1069 1716 984 
Q 1784 875 1895 815 
Q 2006 756 2150 756 
Q 2500 756 2700 1025 
Q 2900 1294 2900 1772 
L 2900 3500 
L 4019 3500 
L 4019 0 
L 2900 0 
L 2900 506 
Q 2647 200 2364 54 
Q 2081 -91 1741 -91 
Q 1134 -91 817 281 
Q 500 653 500 1363 
z
" transform="scale(0.015625)"/>
     </defs>
     <use xlink:href="#DejaVuSans-Bold-2e"/>
     <use xlink:href="#DejaVuSans-Bold-6d" transform="translate(37.988281 0)"/>
     <use xlink:href="#DejaVuSans-Bold-69" transform="translate(142.1875 0)"/>
     <use xlink:href="#DejaVuSans-Bold-6e" transform="translate(176.464844 0)"/>
     <use xlink:href="#DejaVuSans-Bold-69" transform="translate(247.65625 0)"/>
     <use xlink:href="#DejaVuSans-Bold-20" transform="translate(281.933594 0)"/>
     <use xlink:href="#DejaVuSans-Bold-64" transform="translate(316.748047 0)"/>
     <use xlink:href="#DejaVuSans-Bold-6f" transform="translate(388.330078 0)"/>
     <use xlink:href="#DejaVuSans-Bold-63" transform="translate(457.03125 0)"/>
     <use xlink:href="#DejaVuSans-Bold-75" transform="translate(516.308594 0)"/>
     <use xlink:href="#DejaVuSans-Bold-6d" transform="translate(587.5 0)"/>
     <use xlink:href="#DejaVuSans-Bold-65" transform="translate(691.699219 0)"/>
     <use xlink:href="#DejaVuSans-Bold-6e" transform="translate(759.521484 0)"/>
     <use xlink:href="#DejaVuSans-Bold-74" transform="translate(830.712891 0)"/>
    </g>
    <!-- (one line per record) -->
    <g style="fill: #ffffff" transform="translate(231.01995 73.7314) scale(0.068 -0.068)">
     <use xlink:href="#DejaVuSans-Bold-28"/>
     <use xlink:href="#DejaVuSans-Bold-6f" transform="translate(45.703125 0)"/>
     <use xlink:href="#DejaVuSans-Bold-6e" transform="translate(114.404297 0)"/>
     <use xlink:href="#DejaVuSans-Bold-65" transform="translate(185.595703 0)"/>
     <use xlink:href="#DejaVuSans-Bold-20" transform="translate(253.417969 0)"/>
     <use xlink:href="#DejaVuSans-Bold-6c" transform="translate(288.232422 0)"/>
     <use xlink:href="#DejaVuSans-Bold-69" transform="translate(322.509766 0)"/>
     <use xlink:href="#DejaVuSans-Bold-6e" transform="translate(356.787109 0)"/>
     <use xlink:href="#DejaVuSans-Bold-65" transform="translate(427.978516 0)"/>
     <use xlink:href="#DejaVuSans-Bold-20" transform="translate(495.800781 0)"/>
     <use xlink:href="#DejaVuSans-Bold-70" transform="translate(530.615234 0)"/>
     <use xlink:href="#DejaVuSans-Bold-65" transform="translate(602.197266 0)"/>
     <use xlink:href="#DejaVuSans-Bold-72" transform="translate(670.019531 0)"/>
     <use xlink:href="#DejaVuSans-Bold-20" transform="translate(719.335938 0)"/>
     <use xlink:href="#DejaVuSans-Bold-72" transform="translate(754.150391 0)"/>
     <use xlink:href="#DejaVuSans-Bold-65" transform="translate(803.466797 0)"/>
     <use xlink:href="#DejaVuSans-Bold-63" transform="translate(871.289062 0)"/>
     <use xlink:href="#DejaVuSans-Bold-6f" transform="translate(930.566406 0)"/>
     <use xlink:href="#DejaVuSans-Bold-72" transform="translate(999.267578 0)"/>
     <use xlink:href="#DejaVuSans-Bold-64" transform="translate(1048.583984 0)"/>
     <use xlink:href="#DejaVuSans-Bold-29" transform="translate(1120.166016 0)"/>
    </g>
   </g>
   <g id="text_8">
    <!-- canonical JSON -->
    <g style="fill: #ffffff" transform="translate(241.898888 100.039638) scale(0.068 -0.068)">
     <defs>
      <path id="DejaVuSans-Bold-4a" d="M 588 4666 
L 1791 4666 
L 1791 453 
Q 1791 -419 1317 -850 
Q 844 -1281 -116 -1281 
L -359 -1281 
L -359 -372 
L -172 -372 
Q 203 -372 395 -162 
Q 588 47 588 453 
L 588 4666 
z
" transform="scale(0.015625)"/>
      <path id="DejaVuSans-Bold-53" d="M 3834 4519 
L 3834 3531 
Q 3450 3703 3084 3790 
Q 2719 3878 2394 3878 
Q 1963 3878 1756 3759 
Q 1550 3641 1550 3391 
Q 1550 3203 1689 3098 
Q 1828 2994 2194 2919 
L 2706 2816 
Q 3484 2659 3812 2340 
Q 4141 2022 4141 1434 
Q 4141 663 3683 286 
Q 3225 -91 2284 -91 
Q 1841 -91 1394 -6 
Q 947 78 500 244 
L 500 1259 
Q 947 1022 1364 901 
Q 1781 781 2169 781 
Q 2563 781 2772 912 
Q 2981 1044 2981 1288 
Q 2981 1506 2839 1625 
Q 2697 1744 2272 1838 
L 1806 1941 
Q 1106 2091 782 2419 
Q 459 2747 459 3303 
Q 459 4000 909 4375 
Q 1359 4750 2203 4750 
Q 2588 4750 2994 4692 
Q 3400 4634 3834 4519 
z
" transform="scale(0.015625)"/>
     </defs>
     <use xlink:href="#DejaVuSans-Bold-63"/>
     <use xlink:href="#DejaVuSans-Bold-61" transform="translate(59.277344 0)"/>
     <use xlink:href="#DejaVuSans-Bold-6e" transform="translate(126.757812 0)"/>
     <use xlink:href="#DejaVuSans-Bold-6f" transform="translate(197.949219 0)"/>
     <use xlink:href="#DejaVuSans-Bold-6e" transform="translate(266.650391 0)"/>
     <use xlink:href="#DejaVuSans-Bold-69" transform="translate(337.841797 0)"/>
     <use xlink:href="#DejaVuSans-Bold-63" transform="translate(372.119141 0)"/>
     <use xlink:href="#DejaVuSans-Bold-61" transform="translate(431.396484 0)"/>
     <use xlink:href="#DejaVuSans-Bold-6c" transform="translate(498.876953 0)"/>
     <use xlink:href="#DejaVuSans-Bold-20" transform="translate(533.154297 0)"/>
     <use xlink:href="#DejaVuSans-Bold-4a" transform="translate(567.96875 0)"/>
     <use xlink:href="#DejaVuSans-Bold-53" transform="translate(605.175781 0)"/>
     <use xlink:href="#DejaVuSans-Bold-4f" transform="translate(677.197266 0)"/>
     <use xlink:href="#DejaVuSans-Bold-4e" transform="translate(762.207031 0)"/>
    </g>
    <!-- (application object) -->
    <g style="fill: #ffffff" transform="translate(233.13645 107.912498) scale(0.068 -0.068)">
     <use xlink:href="#DejaVuSans-Bold-28"/>
     <use xlink:href="#DejaVuSans-Bold-61" transform="translate(45.703125 0)"/>
     <use xlink:href="#DejaVuSans-Bold-70" transform="translate(113.183594 0)"/>
     <use xlink:href="#DejaVuSans-Bold-70" transform="translate(184.765625 0)"/>
     <use xlink:href="#DejaVuSans-Bold-6c" transform="translate(256.347656 0)"/>
     <use xlink:href="#DejaVuSans-Bold-69" transform="translate(290.625 0)"/>
     <use xlink:href="#DejaVuSans-Bold-63" transform="translate(324.902344 0)"/>
     <use xlink:href="#DejaVuSans-Bold-61" transform="translate(384.179688 0)"/>
     <use xlink:href="#DejaVuSans-Bold-74" transform="translate(451.660156 0)"/>
     <use xlink:href="#DejaVuSans-Bold-69" transform="translate(499.462891 0)"/>
     <use xlink:href="#DejaVuSans-Bold-6f" transform="translate(533.740234 0)"/>
     <use xlink:href="#DejaVuSans-Bold-6e" transform="translate(602.441406 0)"/>
     <use xlink:href="#DejaVuSans-Bold-20" transform="translate(673.632812 0)"/>
     <use xlink:href="#DejaVuSans-Bold-6f" transform="translate(708.447266 0)"/>
     <use xlink:href="#DejaVuSans-Bold-62" transform="translate(777.148438 0)"/>
     <use xlink:href="#DejaVuSans-Bold-6a" transform="translate(848.730469 0)"/>
     <use xlink:href="#DejaVuSans-Bold-65" transform="translate(883.007812 0)"/>
     <use xlink:href="#DejaVuSans-Bold-63" transform="translate(950.830078 0)"/>
     <use xlink:href="#DejaVuSans-Bold-74" transform="translate(1010.107422 0)"/>
     <use xlink:href="#DejaVuSans-Bold-29" transform="translate(1057.910156 0)"/>
    </g>
   </g>
   <g id="text_9">
    <!-- fixtures -->
    <g style="fill: #ffffff" transform="translate(256.6462 134.37004) scale(0.064 -0.064)">
     <use xlink:href="#DejaVuSans-Bold-66"/>
     <use xlink:href="#DejaVuSans-Bold-69" transform="translate(43.505859 0)"/>
     <use xlink:href="#DejaVuSans-Bold-78" transform="translate(77.783203 0)"/>
     <use xlink:href="#DejaVuSans-Bold-74" transform="translate(142.285156 0)"/>
     <use xlink:href="#DejaVuSans-Bold-75" transform="translate(190.087891 0)"/>
     <use xlink:href="#DejaVuSans-Bold-72" transform="translate(261.279297 0)"/>
     <use xlink:href="#DejaVuSans-Bold-65" transform="translate(310.595703 0)"/>
     <use xlink:href="#DejaVuSans-Bold-73" transform="translate(378.417969 0)"/>
    </g>
    <!-- valid · escaping · bad -->
    <g style="fill: #ffffff" transform="translate(232.2147 141.77979) scale(0.064 -0.064)">
     <use xlink:href="#DejaVuSans-Bold-76"/>
     <use xlink:href="#DejaVuSans-Bold-61" transform="translate(65.185547 0)"/>
     <use xlink:href="#DejaVuSans-Bold-6c" transform="translate(132.666016 0)"/>
     <use xlink:href="#DejaVuSans-Bold-69" transform="translate(166.943359 0)"/>
     <use xlink:href="#DejaVuSans-Bold-64" transform="translate(201.220703 0)"/>
     <use xlink:href="#DejaVuSans-Bold-20" transform="translate(272.802734 0)"/>
     <use xlink:href="#DejaVuSans-Bold-b7" transform="translate(307.617188 0)"/>
     <use xlink:href="#DejaVuSans-Bold-20" transform="translate(345.605469 0)"/>
     <use xlink:href="#DejaVuSans-Bold-65" transform="translate(380.419922 0)"/>
     <use xlink:href="#DejaVuSans-Bold-73" transform="translate(448.242188 0)"/>
     <use xlink:href="#DejaVuSans-Bold-63" transform="translate(507.763672 0)"/>
     <use xlink:href="#DejaVuSans-Bold-61" transform="translate(567.041016 0)"/>
     <use xlink:href="#DejaVuSans-Bold-70" transform="translate(634.521484 0)"/>
     <use xlink:href="#DejaVuSans-Bold-69" transform="translate(706.103516 0)"/>
     <use xlink:href="#DejaVuSans-Bold-6e" transform="translate(740.380859 0)"/>
     <use xlink:href="#DejaVuSans-Bold-67" transform="translate(811.572266 0)"/>
     <use xlink:href="#DejaVuSans-Bold-20" transform="translate(883.154297 0)"/>
     <use xlink:href="#DejaVuSans-Bold-b7" transform="translate(917.96875 0)"/>
     <use xlink:href="#DejaVuSans-Bold-20" transform="translate(955.957031 0)"/>
     <use xlink:href="#DejaVuSans-Bold-62" transform="translate(990.771484 0)"/>
     <use xlink:href="#DejaVuSans-Bold-61" transform="translate(1062.353516 0)"/>
     <use xlink:href="#DejaVuSans-Bold-64" transform="translate(1129.833984 0)"/>
    </g>
   </g>
   <g id="patch_17">
    <path d="M 203.328445 33.710936 
Q 217.176897 33.710936 229.907315 33.710936 
" style="fill: none; stroke: #52514e; stroke-linecap: round"/>
    <path d="M 226.707315 32.110936 
L 229.907315 33.710936 
L 226.707315 35.310936 
z
" style="fill: #52514e; stroke: #52514e; stroke-linecap: round"/>
   </g>
   <g id="patch_18">
    <path d="M 270.6597 48.538988 
Q 270.6597 50.81514 270.6597 51.973258 
" style="fill: none; stroke: #52514e; stroke-linecap: round"/>
    <path d="M 272.2597 48.773258 
L 270.6597 51.973258 
L 269.0597 48.773258 
z
" style="fill: #52514e; stroke: #52514e; stroke-linecap: round"/>
   </g>
   <g id="patch_19">
    <path d="M 270.6597 82.746647 
Q 270.6597 85.0228 270.6597 86.180918 
" style="fill: none; stroke: #52514e; stroke-linecap: round"/>
    <path d="M 272.2597 82.980918 
L 270.6597 86.180918 
L 269.0597 82.980918 
z
" style="fill: #52514e; stroke: #52514e; stroke-linecap: round"/>
   </g>
   <g id="text_10">
    <!-- parse -->
    <g style="fill: #52514e" transform="translate(274.6215 84.851387) scale(0.063 -0.063)">
     <defs>
      <path id="DejaVuSans-70" d="M 1159 525 
L 1159 -1331 
L 581 -1331 
L 581 3500 
L 1159 3500 
L 1159 2969 
Q 1341 3281 1617 3432 
Q 1894 3584 2278 3584 
Q 2916 3584 3314 3078 
Q 3713 2572 3713 1747 
Q 3713 922 3314 415 
Q 2916 -91 2278 -91 
Q 1894 -91 1617 61 
Q 1341 213 1159 525 
z
M 3116 1747 
Q 3116 2381 2855 2742 
Q 2594 3103 2138 3103 
Q 1681 3103 1420 2742 
Q 1159 2381 1159 1747 
Q 1159 1113 1420 752 
Q 1681 391 2138 391 
Q 2594 391 2855 752 
Q 3116 1113 3116 1747 
z
" transform="scale(0.015625)"/>
      <path id="DejaVuSans-61" d="M 2194 1759 
Q 1497 1759 1228 1600 
Q 959 1441 959 1056 
Q 959 750 1161 570 
Q 1363 391 1709 391 
Q 2188 391 2477 730 
Q 2766 1069 2766 1631 
L 2766 1759 
L 2194 1759 
z
M 3341 1997 
L 3341 0 
L 2766 0 
L 2766 531 
Q 2569 213 2275 61 
Q 1981 -91 1556 -91 
Q 1019 -91 701 211 
Q 384 513 384 1019 
Q 384 1609 779 1909 
Q 1175 2209 1959 2209 
L 2766 2209 
L 2766 2266 
Q 2766 2663 2505 2880 
Q 2244 3097 1772 3097 
Q 1472 3097 1187 3025 
Q 903 2953 641 2809 
L 641 3341 
Q 956 3463 1253 3523 
Q 1550 3584 1831 3584 
Q 2591 3584 2966 3190 
Q 3341 2797 3341 1997 
z
" transform="scale(0.015625)"/>
      <path id="DejaVuSans-72" d="M 2631 2963 
Q 2534 3019 2420 3045 
Q 2306 3072 2169 3072 
Q 1681 3072 1420 2755 
Q 1159 2438 1159 1844 
L 1159 0 
L 581 0 
L 581 3500 
L 1159 3500 
L 1159 2956 
Q 1341 3275 1631 3429 
Q 1922 3584 2338 3584 
Q 2397 3584 2469 3576 
Q 2541 3569 2628 3553 
L 2631 2963 
z
" transform="scale(0.015625)"/>
      <path id="DejaVuSans-73" d="M 2834 3397 
L 2834 2853 
Q 2591 2978 2328 3040 
Q 2066 3103 1784 3103 
Q 1356 3103 1142 2972 
Q 928 2841 928 2578 
Q 928 2378 1081 2264 
Q 1234 2150 1697 2047 
L 1894 2003 
Q 2506 1872 2764 1633 
Q 3022 1394 3022 966 
Q 3022 478 2636 193 
Q 2250 -91 1575 -91 
Q 1294 -91 989 -36 
Q 684 19 347 128 
L 347 722 
Q 666 556 975 473 
Q 1284 391 1588 391 
Q 1994 391 2212 530 
Q 2431 669 2431 922 
Q 2431 1156 2273 1281 
Q 2116 1406 1581 1522 
L 1381 1569 
Q 847 1681 609 1914 
Q 372 2147 372 2553 
Q 372 3047 722 3315 
Q 1072 3584 1716 3584 
Q 2034 3584 2315 3537 
Q 2597 3491 2834 3397 
z
" transform="scale(0.015625)"/>
      <path id="DejaVuSans-65" d="M 3597 1894 
L 3597 1613 
L 953 1613 
Q 991 1019 1311 708 
Q 1631 397 2203 397 
Q 2534 397 2845 478 
Q 3156 559 3463 722 
L 3463 178 
Q 3153 47 2828 -22 
Q 2503 -91 2169 -91 
Q 1331 -91 842 396 
Q 353 884 353 1716 
Q 353 2575 817 3079 
Q 1281 3584 2069 3584 
Q 2775 3584 3186 3129 
Q 3597 2675 3597 1894 
z
M 3022 2063 
Q 3016 2534 2758 2815 
Q 2500 3097 2075 3097 
Q 1594 3097 1305 2825 
Q 1016 2553 972 2059 
L 3022 2063 
z
" transform="scale(0.015625)"/>
     </defs>
     <use xlink:href="#DejaVuSans-70"/>
     <use xlink:href="#DejaVuSans-61" transform="translate(63.476562 0)"/>
     <use xlink:href="#DejaVuSans-72" transform="translate(124.755859 0)"/>
     <use xlink:href="#DejaVuSans-73" transform="translate(165.869141 0)"/>
     <use xlink:href="#DejaVuSans-65" transform="translate(217.96875 0)"/>
    </g>
   </g>
   <g id="patch_20">
    <path d="M 254.8125 87.298204 
Q 254.8125 85.022051 254.8125 83.863933 
" style="fill: none; stroke: #52514e; stroke-linecap: round"/>
    <path d="M 253.2125 87.063933 
L 254.8125 83.863933 
L 256.4125 87.063933 
z
" style="fill: #52514e; stroke: #52514e; stroke-linecap: round"/>
   </g>
   <g id="text_11">
    <!-- dumps -->
    <g style="fill: #52514e" transform="translate(235.0035 84.851387) scale(0.063 -0.063)">
     <defs>
      <path id="DejaVuSans-64" d="M 2906 2969 
L 2906 4863 
L 3481 4863 
L 3481 0 
L 2906 0 
L 2906 525 
Q 2725 213 2448 61 
Q 2172 -91 1784 -91 
Q 1150 -91 751 415 
Q 353 922 353 1747 
Q 353 2572 751 3078 
Q 1150 3584 1784 3584 
Q 2172 3584 2448 3432 
Q 2725 3281 2906 2969 
z
M 947 1747 
Q 947 1113 1208 752 
Q 1469 391 1925 391 
Q 2381 391 2643 752 
Q 2906 1113 2906 1747 
Q 2906 2381 2643 2742 
Q 2381 3103 1925 3103 
Q 1469 3103 1208 2742 
Q 947 2381 947 1747 
z
" transform="scale(0.015625)"/>
      <path id="DejaVuSans-75" d="M 544 1381 
L 544 3500 
L 1119 3500 
L 1119 1403 
Q 1119 906 1312 657 
Q 1506 409 1894 409 
Q 2359 409 2629 706 
Q 2900 1003 2900 1516 
L 2900 3500 
L 3475 3500 
L 3475 0 
L 2900 0 
L 2900 538 
Q 2691 219 2414 64 
Q 2138 -91 1772 -91 
Q 1169 -91 856 284 
Q 544 659 544 1381 
z
M 1991 3584 
L 1991 3584 
z
" transform="scale(0.015625)"/>
      <path id="DejaVuSans-6d" d="M 3328 2828 
Q 3544 3216 3844 3400 
Q 4144 3584 4550 3584 
Q 5097 3584 5394 3201 
Q 5691 2819 5691 2113 
L 5691 0 
L 5113 0 
L 5113 2094 
Q 5113 2597 4934 2840 
Q 4756 3084 4391 3084 
Q 3944 3084 3684 2787 
Q 3425 2491 3425 1978 
L 3425 0 
L 2847 0 
L 2847 2094 
Q 2847 2600 2669 2842 
Q 2491 3084 2119 3084 
Q 1678 3084 1418 2786 
Q 1159 2488 1159 1978 
L 1159 0 
L 581 0 
L 581 3500 
L 1159 3500 
L 1159 2956 
Q 1356 3278 1631 3431 
Q 1906 3584 2284 3584 
Q 2666 3584 2933 3390 
Q 3200 3197 3328 2828 
z
" transform="scale(0.015625)"/>
     </defs>
     <use xlink:href="#DejaVuSans-64"/>
     <use xlink:href="#DejaVuSans-75" transform="translate(63.476562 0)"/>
     <use xlink:href="#DejaVuSans-6d" transform="translate(126.855469 0)"/>
     <use xlink:href="#DejaVuSans-70" transform="translate(224.267578 0)"/>
     <use xlink:href="#DejaVuSans-73" transform="translate(287.744141 0)"/>
    </g>
   </g>
   <g id="patch_21">
    <path d="M 203.328445 136.333915 
Q 217.176897 136.333915 229.907315 136.333915 
" style="fill: none; stroke: #52514e; stroke-linecap: round"/>
    <path d="M 226.707315 134.733915 
L 229.907315 136.333915 
L 226.707315 137.933915 
z
" style="fill: #52514e; stroke: #52514e; stroke-linecap: round"/>
   </g>
   <g id="text_12">
    <!-- child fork -->
    <g style="fill: #ffffff" transform="translate(346.158563 119.396308) scale(0.066 -0.066)">
     <use xlink:href="#DejaVuSans-Bold-63"/>
     <use xlink:href="#DejaVuSans-Bold-68" transform="translate(59.277344 0)"/>
     <use xlink:href="#DejaVuSans-Bold-69" transform="translate(130.46875 0)"/>
     <use xlink:href="#DejaVuSans-Bold-6c" transform="translate(164.746094 0)"/>
     <use xlink:href="#DejaVuSans-Bold-64" transform="translate(199.023438 0)"/>
     <use xlink:href="#DejaVuSans-Bold-20" transform="translate(270.605469 0)"/>
     <use xlink:href="#DejaVuSans-Bold-66" transform="translate(305.419922 0)"/>
     <use xlink:href="#DejaVuSans-Bold-6f" transform="translate(348.925781 0)"/>
     <use xlink:href="#DejaVuSans-Bold-72" transform="translate(417.626953 0)"/>
     <use xlink:href="#DejaVuSans-Bold-6b" transform="translate(466.943359 0)"/>
    </g>
    <!-- parent core + -->
    <g style="fill: #ffffff" transform="translate(338.228766 127.037613) scale(0.066 -0.066)">
     <defs>
      <path id="DejaVuSans-Bold-2b" d="M 3053 4013 
L 3053 2375 
L 4684 2375 
L 4684 1638 
L 3053 1638 
L 3053 0 
L 2309 0 
L 2309 1638 
L 678 1638 
L 678 2375 
L 2309 2375 
L 2309 4013 
L 3053 4013 
z
" transform="scale(0.015625)"/>
     </defs>
     <use xlink:href="#DejaVuSans-Bold-70"/>
     <use xlink:href="#DejaVuSans-Bold-61" transform="translate(71.582031 0)"/>
     <use xlink:href="#DejaVuSans-Bold-72" transform="translate(139.0625 0)"/>
     <use xlink:href="#DejaVuSans-Bold-65" transform="translate(188.378906 0)"/>
     <use xlink:href="#DejaVuSans-Bold-6e" transform="translate(256.201172 0)"/>
     <use xlink:href="#DejaVuSans-Bold-74" transform="translate(327.392578 0)"/>
     <use xlink:href="#DejaVuSans-Bold-20" transform="translate(375.195312 0)"/>
     <use xlink:href="#DejaVuSans-Bold-63" transform="translate(410.009766 0)"/>
     <use xlink:href="#DejaVuSans-Bold-6f" transform="translate(469.287109 0)"/>
     <use xlink:href="#DejaVuSans-Bold-72" transform="translate(537.988281 0)"/>
     <use xlink:href="#DejaVuSans-Bold-65" transform="translate(587.304688 0)"/>
     <use xlink:href="#DejaVuSans-Bold-20" transform="translate(655.126953 0)"/>
     <use xlink:href="#DejaVuSans-Bold-2b" transform="translate(689.941406 0)"/>
    </g>
    <!-- appended tail -->
    <g style="fill: #ffffff" transform="translate(338.045203 134.678918) scale(0.066 -0.066)">
     <use xlink:href="#DejaVuSans-Bold-61"/>
     <use xlink:href="#DejaVuSans-Bold-70" transform="translate(67.480469 0)"/>
     <use xlink:href="#DejaVuSans-Bold-70" transform="translate(139.0625 0)"/>
     <use xlink:href="#DejaVuSans-Bold-65" transform="translate(210.644531 0)"/>
     <use xlink:href="#DejaVuSans-Bold-6e" transform="translate(278.466797 0)"/>
     <use xlink:href="#DejaVuSans-Bold-64" transform="translate(349.658203 0)"/>
     <use xlink:href="#DejaVuSans-Bold-65" transform="translate(421.240234 0)"/>
     <use xlink:href="#DejaVuSans-Bold-64" transform="translate(489.0625 0)"/>
     <use xlink:href="#DejaVuSans-Bold-20" transform="translate(560.644531 0)"/>
     <use xlink:href="#DejaVuSans-Bold-74" transform="translate(595.458984 0)"/>
     <use xlink:href="#DejaVuSans-Bold-61" transform="translate(643.261719 0)"/>
     <use xlink:href="#DejaVuSans-Bold-69" transform="translate(710.742188 0)"/>
     <use xlink:href="#DejaVuSans-Bold-6c" transform="translate(745.019531 0)"/>
    </g>
   </g>
   <g id="patch_22">
    <path d="M 363.762 157.423906 
Q 363.762 150.873214 363.762 145.664162 
" style="fill: none; stroke: #2a78d6; stroke-width: 1.2; stroke-linecap: round"/>
    <path d="M 362.162 148.864162 
L 363.762 145.664162 
L 365.362 148.864162 
z
" style="fill: #2a78d6; stroke: #2a78d6; stroke-width: 1.2; stroke-linecap: round"/>
   </g>
   <g id="text_13">
    <!-- fork: new prefix · inherited fields unchanged · new fields appended -->
    <g style="fill: #2a78d6" transform="translate(99.615867 155.377269) scale(0.063 -0.063)">
     <defs>
      <path id="DejaVuSans-66" d="M 2375 4863 
L 2375 4384 
L 1825 4384 
Q 1516 4384 1395 4259 
Q 1275 4134 1275 3809 
L 1275 3500 
L 2222 3500 
L 2222 3053 
L 1275 3053 
L 1275 0 
L 697 0 
L 697 3053 
L 147 3053 
L 147 3500 
L 697 3500 
L 697 3744 
Q 697 4328 969 4595 
Q 1241 4863 1831 4863 
L 2375 4863 
z
" transform="scale(0.015625)"/>
      <path id="DejaVuSans-6f" d="M 1959 3097 
Q 1497 3097 1228 2736 
Q 959 2375 959 1747 
Q 959 1119 1226 758 
Q 1494 397 1959 397 
Q 2419 397 2687 759 
Q 2956 1122 2956 1747 
Q 2956 2369 2687 2733 
Q 2419 3097 1959 3097 
z
M 1959 3584 
Q 2709 3584 3137 3096 
Q 3566 2609 3566 1747 
Q 3566 888 3137 398 
Q 2709 -91 1959 -91 
Q 1206 -91 779 398 
Q 353 888 353 1747 
Q 353 2609 779 3096 
Q 1206 3584 1959 3584 
z
" transform="scale(0.015625)"/>
      <path id="DejaVuSans-6b" d="M 581 4863 
L 1159 4863 
L 1159 1991 
L 2875 3500 
L 3609 3500 
L 1753 1863 
L 3688 0 
L 2938 0 
L 1159 1709 
L 1159 0 
L 581 0 
L 581 4863 
z
" transform="scale(0.015625)"/>
      <path id="DejaVuSans-3a" d="M 750 794 
L 1409 794 
L 1409 0 
L 750 0 
L 750 794 
z
M 750 3309 
L 1409 3309 
L 1409 2516 
L 750 2516 
L 750 3309 
z
" transform="scale(0.015625)"/>
      <path id="DejaVuSans-20" transform="scale(0.015625)"/>
      <path id="DejaVuSans-6e" d="M 3513 2113 
L 3513 0 
L 2938 0 
L 2938 2094 
Q 2938 2591 2744 2837 
Q 2550 3084 2163 3084 
Q 1697 3084 1428 2787 
Q 1159 2491 1159 1978 
L 1159 0 
L 581 0 
L 581 3500 
L 1159 3500 
L 1159 2956 
Q 1366 3272 1645 3428 
Q 1925 3584 2291 3584 
Q 2894 3584 3203 3211 
Q 3513 2838 3513 2113 
z
" transform="scale(0.015625)"/>
      <path id="DejaVuSans-77" d="M 269 3500 
L 844 3500 
L 1563 769 
L 2278 3500 
L 2956 3500 
L 3675 769 
L 4391 3500 
L 4966 3500 
L 4050 0 
L 3372 0 
L 2619 2869 
L 1863 0 
L 1184 0 
L 269 3500 
z
" transform="scale(0.015625)"/>
      <path id="DejaVuSans-69" d="M 603 3500 
L 1178 3500 
L 1178 0 
L 603 0 
L 603 3500 
z
M 603 4863 
L 1178 4863 
L 1178 4134 
L 603 4134 
L 603 4863 
z
" transform="scale(0.015625)"/>
      <path id="DejaVuSans-78" d="M 3513 3500 
L 2247 1797 
L 3578 0 
L 2900 0 
L 1881 1375 
L 863 0 
L 184 0 
L 1544 1831 
L 300 3500 
L 978 3500 
L 1906 2253 
L 2834 3500 
L 3513 3500 
z
" transform="scale(0.015625)"/>
      <path id="DejaVuSans-b7" d="M 684 2619 
L 1344 2619 
L 1344 1825 
L 684 1825 
L 684 2619 
z
" transform="scale(0.015625)"/>
      <path id="DejaVuSans-68" d="M 3513 2113 
L 3513 0 
L 2938 0 
L 2938 2094 
Q 2938 2591 2744 2837 
Q 2550 3084 2163 3084 
Q 1697 3084 1428 2787 
Q 1159 2491 1159 1978 
L 1159 0 
L 581 0 
L 581 4863 
L 1159 4863 
L 1159 2956 
Q 1366 3272 1645 3428 
Q 1925 3584 2291 3584 
Q 2894 3584 3203 3211 
Q 3513 2838 3513 2113 
z
" transform="scale(0.015625)"/>
      <path id="DejaVuSans-74" d="M 1172 4494 
L 1172 3500 
L 2356 3500 
L 2356 3053 
L 1172 3053 
L 1172 1153 
Q 1172 725 1289 603 
Q 1406 481 1766 481 
L 2356 481 
L 2356 0 
L 1766 0 
Q 1100 0 847 248 
Q 594 497 594 1153 
L 594 3053 
L 172 3053 
L 172 3500 
L 594 3500 
L 594 4494 
L 1172 4494 
z
" transform="scale(0.015625)"/>
      <path id="DejaVuSans-6c" d="M 603 4863 
L 1178 4863 
L 1178 0 
L 603 0 
L 603 4863 
z
" transform="scale(0.015625)"/>
      <path id="DejaVuSans-63" d="M 3122 3366 
L 3122 2828 
Q 2878 2963 2633 3030 
Q 2388 3097 2138 3097 
Q 1578 3097 1268 2742 
Q 959 2388 959 1747 
Q 959 1106 1268 751 
Q 1578 397 2138 397 
Q 2388 397 2633 464 
Q 2878 531 3122 666 
L 3122 134 
Q 2881 22 2623 -34 
Q 2366 -91 2075 -91 
Q 1284 -91 818 406 
Q 353 903 353 1747 
Q 353 2603 823 3093 
Q 1294 3584 2113 3584 
Q 2378 3584 2631 3529 
Q 2884 3475 3122 3366 
z
" transform="scale(0.015625)"/>
      <path id="DejaVuSans-67" d="M 2906 1791 
Q 2906 2416 2648 2759 
Q 2391 3103 1925 3103 
Q 1463 3103 1205 2759 
Q 947 2416 947 1791 
Q 947 1169 1205 825 
Q 1463 481 1925 481 
Q 2391 481 2648 825 
Q 2906 1169 2906 1791 
z
M 3481 434 
Q 3481 -459 3084 -895 
Q 2688 -1331 1869 -1331 
Q 1566 -1331 1297 -1286 
Q 1028 -1241 775 -1147 
L 775 -588 
Q 1028 -725 1275 -790 
Q 1522 -856 1778 -856 
Q 2344 -856 2625 -561 
Q 2906 -266 2906 331 
L 2906 616 
Q 2728 306 2450 153 
Q 2172 0 1784 0 
Q 1141 0 747 490 
Q 353 981 353 1791 
Q 353 2603 747 3093 
Q 1141 3584 1784 3584 
Q 2172 3584 2450 3431 
Q 2728 3278 2906 2969 
L 2906 3500 
L 3481 3500 
L 3481 434 
z
" transform="scale(0.015625)"/>
     </defs>
     <use xlink:href="#DejaVuSans-66"/>
     <use xlink:href="#DejaVuSans-6f" transform="translate(35.205078 0)"/>
     <use xlink:href="#DejaVuSans-72" transform="translate(96.386719 0)"/>
     <use xlink:href="#DejaVuSans-6b" transform="translate(137.5 0)"/>
     <use xlink:href="#DejaVuSans-3a" transform="translate(195.410156 0)"/>
     <use xlink:href="#DejaVuSans-20" transform="translate(229.101562 0)"/>
     <use xlink:href="#DejaVuSans-6e" transform="translate(260.888672 0)"/>
     <use xlink:href="#DejaVuSans-65" transform="translate(324.267578 0)"/>
     <use xlink:href="#DejaVuSans-77" transform="translate(385.791016 0)"/>
     <use xlink:href="#DejaVuSans-20" transform="translate(467.578125 0)"/>
     <use xlink:href="#DejaVuSans-70" transform="translate(499.365234 0)"/>
     <use xlink:href="#DejaVuSans-72" transform="translate(562.841797 0)"/>
     <use xlink:href="#DejaVuSans-65" transform="translate(601.705078 0)"/>
     <use xlink:href="#DejaVuSans-66" transform="translate(663.228516 0)"/>
     <use xlink:href="#DejaVuSans-69" transform="translate(698.433594 0)"/>
     <use xlink:href="#DejaVuSans-78" transform="translate(726.216797 0)"/>
     <use xlink:href="#DejaVuSans-20" transform="translate(785.396484 0)"/>
     <use xlink:href="#DejaVuSans-b7" transform="translate(817.183594 0)"/>
     <use xlink:href="#DejaVuSans-20" transform="translate(848.970703 0)"/>
     <use xlink:href="#DejaVuSans-69" transform="translate(880.757812 0)"/>
     <use xlink:href="#DejaVuSans-6e" transform="translate(908.541016 0)"/>
     <use xlink:href="#DejaVuSans-68" transform="translate(971.919922 0)"/>
     <use xlink:href="#DejaVuSans-65" transform="translate(1035.298828 0)"/>
     <use xlink:href="#DejaVuSans-72" transform="translate(1096.822266 0)"/>
     <use xlink:href="#DejaVuSans-69" transform="translate(1137.935547 0)"/>
     <use xlink:href="#DejaVuSans-74" transform="translate(1165.71875 0)"/>
     <use xlink:href="#DejaVuSans-65" transform="translate(1204.927734 0)"/>
     <use xlink:href="#DejaVuSans-64" transform="translate(1266.451172 0)"/>
     <use xlink:href="#DejaVuSans-20" transform="translate(1329.927734 0)"/>
     <use xlink:href="#DejaVuSans-66" transform="translate(1361.714844 0)"/>
     <use xlink:href="#DejaVuSans-69" transform="translate(1396.919922 0)"/>
     <use xlink:href="#DejaVuSans-65" transform="translate(1424.703125 0)"/>
     <use xlink:href="#DejaVuSans-6c" transform="translate(1486.226562 0)"/>
     <use xlink:href="#DejaVuSans-64" transform="translate(1514.009766 0)"/>
     <use xlink:href="#DejaVuSans-73" transform="translate(1577.486328 0)"/>
     <use xlink:href="#DejaVuSans-20" transform="translate(1629.585938 0)"/>
     <use xlink:href="#DejaVuSans-75" transform="translate(1661.373047 0)"/>
     <use xlink:href="#DejaVuSans-6e" transform="translate(1724.751953 0)"/>
     <use xlink:href="#DejaVuSans-63" transform="translate(1788.130859 0)"/>
     <use xlink:href="#DejaVuSans-68" transform="translate(1843.111328 0)"/>
     <use xlink:href="#DejaVuSans-61" transform="translate(1906.490234 0)"/>
     <use xlink:href="#DejaVuSans-6e" transform="translate(1967.769531 0)"/>
     <use xlink:href="#DejaVuSans-67" transform="translate(2031.148438 0)"/>
     <use xlink:href="#DejaVuSans-65" transform="translate(2094.625 0)"/>
     <use xlink:href="#DejaVuSans-64" transform="translate(2156.148438 0)"/>
     <use xlink:href="#DejaVuSans-20" transform="translate(2219.625 0)"/>
     <use xlink:href="#DejaVuSans-b7" transform="translate(2251.412109 0)"/>
     <use xlink:href="#DejaVuSans-20" transform="translate(2283.199219 0)"/>
     <use xlink:href="#DejaVuSans-6e" transform="translate(2314.986328 0)"/>
     <use xlink:href="#DejaVuSans-65" transform="translate(2378.365234 0)"/>
     <use xlink:href="#DejaVuSans-77" transform="translate(2439.888672 0)"/>
     <use xlink:href="#DejaVuSans-20" transform="translate(2521.675781 0)"/>
     <use xlink:href="#DejaVuSans-66" transform="translate(2553.462891 0)"/>
     <use xlink:href="#DejaVuSans-69" transform="translate(2588.667969 0)"/>
     <use xlink:href="#DejaVuSans-65" transform="translate(2616.451172 0)"/>
     <use xlink:href="#DejaVuSans-6c" transform="translate(2677.974609 0)"/>
     <use xlink:href="#DejaVuSans-64" transform="translate(2705.757812 0)"/>
     <use xlink:href="#DejaVuSans-73" transform="translate(2769.234375 0)"/>
     <use xlink:href="#DejaVuSans-20" transform="translate(2821.333984 0)"/>
     <use xlink:href="#DejaVuSans-61" transform="translate(2853.121094 0)"/>
     <use xlink:href="#DejaVuSans-70" transform="translate(2914.400391 0)"/>
     <use xlink:href="#DejaVuSans-70" transform="translate(2977.876953 0)"/>
     <use xlink:href="#DejaVuSans-65" transform="translate(3041.353516 0)"/>
     <use xlink:href="#DejaVuSans-6e" transform="translate(3102.876953 0)"/>
     <use xlink:href="#DejaVuSans-64" transform="translate(3166.255859 0)"/>
     <use xlink:href="#DejaVuSans-65" transform="translate(3229.732422 0)"/>
     <use xlink:href="#DejaVuSans-64" transform="translate(3291.255859 0)"/>
    </g>
   </g>
   <g id="text_14">
    <!-- registry -->
    <g style="fill: #ffffff" transform="translate(349.083188 53.950306) scale(0.066 -0.066)">
     <use xlink:href="#DejaVuSans-Bold-72"/>
     <use xlink:href="#DejaVuSans-Bold-65" transform="translate(49.316406 0)"/>
     <use xlink:href="#DejaVuSans-Bold-67" transform="translate(117.138672 0)"/>
     <use xlink:href="#DejaVuSans-Bold-69" transform="translate(188.720703 0)"/>
     <use xlink:href="#DejaVuSans-Bold-73" transform="translate(222.998047 0)"/>
     <use xlink:href="#DejaVuSans-Bold-74" transform="translate(282.519531 0)"/>
     <use xlink:href="#DejaVuSans-Bold-72" transform="translate(330.322266 0)"/>
     <use xlink:href="#DejaVuSans-Bold-79" transform="translate(379.638672 0)"/>
    </g>
    <!-- unique prefixes -->
    <g style="fill: #ffffff" transform="translate(334.708594 61.643173) scale(0.066 -0.066)">
     <defs>
      <path id="DejaVuSans-Bold-71" d="M 2181 2772 
Q 1825 2772 1636 2509 
Q 1447 2247 1447 1747 
Q 1447 1247 1636 984 
Q 1825 722 2181 722 
Q 2541 722 2730 984 
Q 2919 1247 2919 1747 
Q 2919 2247 2730 2509 
Q 2541 2772 2181 2772 
z
M 2919 506 
Q 2688 197 2409 53 
Q 2131 -91 1766 -91 
Q 1119 -91 703 423 
Q 288 938 288 1747 
Q 288 2556 703 3067 
Q 1119 3578 1766 3578 
Q 2131 3578 2409 3434 
Q 2688 3291 2919 2981 
L 2919 3500 
L 4044 3500 
L 4044 -1331 
L 2919 -1331 
L 2919 506 
z
" transform="scale(0.015625)"/>
     </defs>
     <use xlink:href="#DejaVuSans-Bold-75"/>
     <use xlink:href="#DejaVuSans-Bold-6e" transform="translate(71.191406 0)"/>
     <use xlink:href="#DejaVuSans-Bold-69" transform="translate(142.382812 0)"/>
     <use xlink:href="#DejaVuSans-Bold-71" transform="translate(176.660156 0)"/>
     <use xlink:href="#DejaVuSans-Bold-75" transform="translate(248.242188 0)"/>
     <use xlink:href="#DejaVuSans-Bold-65" transform="translate(319.433594 0)"/>
     <use xlink:href="#DejaVuSans-Bold-20" transform="translate(387.255859 0)"/>
     <use xlink:href="#DejaVuSans-Bold-70" transform="translate(422.070312 0)"/>
     <use xlink:href="#DejaVuSans-Bold-72" transform="translate(493.652344 0)"/>
     <use xlink:href="#DejaVuSans-Bold-65" transform="translate(542.96875 0)"/>
     <use xlink:href="#DejaVuSans-Bold-66" transform="translate(610.791016 0)"/>
     <use xlink:href="#DejaVuSans-Bold-69" transform="translate(654.296875 0)"/>
     <use xlink:href="#DejaVuSans-Bold-78" transform="translate(688.574219 0)"/>
     <use xlink:href="#DejaVuSans-Bold-65" transform="translate(753.076172 0)"/>
     <use xlink:href="#DejaVuSans-Bold-73" transform="translate(820.898438 0)"/>
    </g>
    <!-- lineage · CI -->
    <g style="fill: #ffffff" transform="translate(342.883828 69.284478) scale(0.066 -0.066)">
     <use xlink:href="#DejaVuSans-Bold-6c"/>
     <use xlink:href="#DejaVuSans-Bold-69" transform="translate(34.277344 0)"/>
     <use xlink:href="#DejaVuSans-Bold-6e" transform="translate(68.554688 0)"/>
     <use xlink:href="#DejaVuSans-Bold-65" transform="translate(139.746094 0)"/>
     <use xlink:href="#DejaVuSans-Bold-61" transform="translate(207.568359 0)"/>
     <use xlink:href="#DejaVuSans-Bold-67" transform="translate(275.048828 0)"/>
     <use xlink:href="#DejaVuSans-Bold-65" transform="translate(346.630859 0)"/>
     <use xlink:href="#DejaVuSans-Bold-20" transform="translate(414.453125 0)"/>
     <use xlink:href="#DejaVuSans-Bold-b7" transform="translate(449.267578 0)"/>
     <use xlink:href="#DejaVuSans-Bold-20" transform="translate(487.255859 0)"/>
     <use xlink:href="#DejaVuSans-Bold-43" transform="translate(522.070312 0)"/>
     <use xlink:href="#DejaVuSans-Bold-49" transform="translate(595.458984 0)"/>
    </g>
    <!-- (mini check-forks) -->
    <g style="fill: #ffffff" transform="translate(329.993719 76.977345) scale(0.066 -0.066)">
     <defs>
      <path id="DejaVuSans-Bold-2d" d="M 347 2297 
L 2309 2297 
L 2309 1388 
L 347 1388 
L 347 2297 
z
" transform="scale(0.015625)"/>
     </defs>
     <use xlink:href="#DejaVuSans-Bold-28"/>
     <use xlink:href="#DejaVuSans-Bold-6d" transform="translate(45.703125 0)"/>
     <use xlink:href="#DejaVuSans-Bold-69" transform="translate(149.902344 0)"/>
     <use xlink:href="#DejaVuSans-Bold-6e" transform="translate(184.179688 0)"/>
     <use xlink:href="#DejaVuSans-Bold-69" transform="translate(255.371094 0)"/>
     <use xlink:href="#DejaVuSans-Bold-20" transform="translate(289.648438 0)"/>
     <use xlink:href="#DejaVuSans-Bold-63" transform="translate(324.462891 0)"/>
     <use xlink:href="#DejaVuSans-Bold-68" transform="translate(383.740234 0)"/>
     <use xlink:href="#DejaVuSans-Bold-65" transform="translate(454.931641 0)"/>
     <use xlink:href="#DejaVuSans-Bold-63" transform="translate(522.753906 0)"/>
     <use xlink:href="#DejaVuSans-Bold-6b" transform="translate(582.03125 0)"/>
     <use xlink:href="#DejaVuSans-Bold-2d" transform="translate(648.535156 0)"/>
     <use xlink:href="#DejaVuSans-Bold-66" transform="translate(690.039062 0)"/>
     <use xlink:href="#DejaVuSans-Bold-6f" transform="translate(733.544922 0)"/>
     <use xlink:href="#DejaVuSans-Bold-72" transform="translate(802.246094 0)"/>
     <use xlink:href="#DejaVuSans-Bold-6b" transform="translate(851.5625 0)"/>
     <use xlink:href="#DejaVuSans-Bold-73" transform="translate(918.066406 0)"/>
     <use xlink:href="#DejaVuSans-Bold-29" transform="translate(977.587891 0)"/>
    </g>
   </g>
   <g id="patch_23">
    <path d="M 363.762 106.110329 
Q 363.762 96.139239 363.762 87.286183 
" style="fill: none; stroke: #52514e; stroke-linecap: round"/>
    <path d="M 362.162 90.486183 
L 363.762 87.286183 
L 365.362 90.486183 
z
" style="fill: #52514e; stroke: #52514e; stroke-linecap: round"/>
   </g>
   <g id="text_15">
    <!-- A .mini family: the contract is data; every tool is derived from it -->
    <g style="fill: #0b0b0b" transform="translate(15.1236 16.353798) scale(0.085 -0.085)">
     <defs>
      <path id="DejaVuSans-Bold-3a" d="M 716 3500 
L 1844 3500 
L 1844 2291 
L 716 2291 
L 716 3500 
z
M 716 1209 
L 1844 1209 
L 1844 0 
L 716 0 
L 716 1209 
z
" transform="scale(0.015625)"/>
      <path id="DejaVuSans-Bold-3b" d="M 716 1209 
L 1844 1209 
L 1844 256 
L 1069 -909 
L 403 -909 
L 716 256 
L 716 1209 
z
M 716 3500 
L 1844 3500 
L 1844 2291 
L 716 2291 
L 716 3500 
z
" transform="scale(0.015625)"/>
     </defs>
     <use xlink:href="#DejaVuSans-Bold-41"/>
     <use xlink:href="#DejaVuSans-Bold-20" transform="translate(77.392578 0)"/>
     <use xlink:href="#DejaVuSans-Bold-2e" transform="translate(112.207031 0)"/>
     <use xlink:href="#DejaVuSans-Bold-6d" transform="translate(150.195312 0)"/>
     <use xlink:href="#DejaVuSans-Bold-69" transform="translate(254.394531 0)"/>
     <use xlink:href="#DejaVuSans-Bold-6e" transform="translate(288.671875 0)"/>
     <use xlink:href="#DejaVuSans-Bold-69" transform="translate(359.863281 0)"/>
     <use xlink:href="#DejaVuSans-Bold-20" transform="translate(394.140625 0)"/>
     <use xlink:href="#DejaVuSans-Bold-66" transform="translate(428.955078 0)"/>
     <use xlink:href="#DejaVuSans-Bold-61" transform="translate(472.460938 0)"/>
     <use xlink:href="#DejaVuSans-Bold-6d" transform="translate(539.941406 0)"/>
     <use xlink:href="#DejaVuSans-Bold-69" transform="translate(644.140625 0)"/>
     <use xlink:href="#DejaVuSans-Bold-6c" transform="translate(678.417969 0)"/>
     <use xlink:href="#DejaVuSans-Bold-79" transform="translate(712.695312 0)"/>
     <use xlink:href="#DejaVuSans-Bold-3a" transform="translate(777.880859 0)"/>
     <use xlink:href="#DejaVuSans-Bold-20" transform="translate(817.871094 0)"/>
     <use xlink:href="#DejaVuSans-Bold-74" transform="translate(852.685547 0)"/>
     <use xlink:href="#DejaVuSans-Bold-68" transform="translate(900.488281 0)"/>
     <use xlink:href="#DejaVuSans-Bold-65" transform="translate(971.679688 0)"/>
     <use xlink:href="#DejaVuSans-Bold-20" transform="translate(1039.501953 0)"/>
     <use xlink:href="#DejaVuSans-Bold-63" transform="translate(1074.316406 0)"/>
     <use xlink:href="#DejaVuSans-Bold-6f" transform="translate(1133.59375 0)"/>
     <use xlink:href="#DejaVuSans-Bold-6e" transform="translate(1202.294922 0)"/>
     <use xlink:href="#DejaVuSans-Bold-74" transform="translate(1273.486328 0)"/>
     <use xlink:href="#DejaVuSans-Bold-72" transform="translate(1321.289062 0)"/>
     <use xlink:href="#DejaVuSans-Bold-61" transform="translate(1370.605469 0)"/>
     <use xlink:href="#DejaVuSans-Bold-63" transform="translate(1438.085938 0)"/>
     <use xlink:href="#DejaVuSans-Bold-74" transform="translate(1497.363281 0)"/>
     <use xlink:href="#DejaVuSans-Bold-20" transform="translate(1545.166016 0)"/>
     <use xlink:href="#DejaVuSans-Bold-69" transform="translate(1579.980469 0)"/>
     <use xlink:href="#DejaVuSans-Bold-73" transform="translate(1614.257812 0)"/>
     <use xlink:href="#DejaVuSans-Bold-20" transform="translate(1673.779297 0)"/>
     <use xlink:href="#DejaVuSans-Bold-64" transform="translate(1708.59375 0)"/>
     <use xlink:href="#DejaVuSans-Bold-61" transform="translate(1780.175781 0)"/>
     <use xlink:href="#DejaVuSans-Bold-74" transform="translate(1847.65625 0)"/>
     <use xlink:href="#DejaVuSans-Bold-61" transform="translate(1895.458984 0)"/>
     <use xlink:href="#DejaVuSans-Bold-3b" transform="translate(1962.939453 0)"/>
     <use xlink:href="#DejaVuSans-Bold-20" transform="translate(2002.929688 0)"/>
     <use xlink:href="#DejaVuSans-Bold-65" transform="translate(2037.744141 0)"/>
     <use xlink:href="#DejaVuSans-Bold-76" transform="translate(2105.566406 0)"/>
     <use xlink:href="#DejaVuSans-Bold-65" transform="translate(2170.751953 0)"/>
     <use xlink:href="#DejaVuSans-Bold-72" transform="translate(2238.574219 0)"/>
     <use xlink:href="#DejaVuSans-Bold-79" transform="translate(2287.890625 0)"/>
     <use xlink:href="#DejaVuSans-Bold-20" transform="translate(2353.076172 0)"/>
     <use xlink:href="#DejaVuSans-Bold-74" transform="translate(2387.890625 0)"/>
     <use xlink:href="#DejaVuSans-Bold-6f" transform="translate(2435.693359 0)"/>
     <use xlink:href="#DejaVuSans-Bold-6f" transform="translate(2504.394531 0)"/>
     <use xlink:href="#DejaVuSans-Bold-6c" transform="translate(2573.095703 0)"/>
     <use xlink:href="#DejaVuSans-Bold-20" transform="translate(2607.373047 0)"/>
     <use xlink:href="#DejaVuSans-Bold-69" transform="translate(2642.1875 0)"/>
     <use xlink:href="#DejaVuSans-Bold-73" transform="translate(2676.464844 0)"/>
     <use xlink:href="#DejaVuSans-Bold-20" transform="translate(2735.986328 0)"/>
     <use xlink:href="#DejaVuSans-Bold-64" transform="translate(2770.800781 0)"/>
     <use xlink:href="#DejaVuSans-Bold-65" transform="translate(2842.382812 0)"/>
     <use xlink:href="#DejaVuSans-Bold-72" transform="translate(2910.205078 0)"/>
     <use xlink:href="#DejaVuSans-Bold-69" transform="translate(2959.521484 0)"/>
     <use xlink:href="#DejaVuSans-Bold-76" transform="translate(2993.798828 0)"/>
     <use xlink:href="#DejaVuSans-Bold-65" transform="translate(3058.984375 0)"/>
     <use xlink:href="#DejaVuSans-Bold-64" transform="translate(3126.806641 0)"/>
     <use xlink:href="#DejaVuSans-Bold-20" transform="translate(3198.388672 0)"/>
     <use xlink:href="#DejaVuSans-Bold-66" transform="translate(3233.203125 0)"/>
     <use xlink:href="#DejaVuSans-Bold-72" transform="translate(3276.708984 0)"/>
     <use xlink:href="#DejaVuSans-Bold-6f" transform="translate(3326.025391 0)"/>
     <use xlink:href="#DejaVuSans-Bold-6d" transform="translate(3394.726562 0)"/>
     <use xlink:href="#DejaVuSans-Bold-20" transform="translate(3498.925781 0)"/>
     <use xlink:href="#DejaVuSans-Bold-69" transform="translate(3533.740234 0)"/>
     <use xlink:href="#DejaVuSans-Bold-74" transform="translate(3568.017578 0)"/>
    </g>
   </g>
  </g>
 </g>
 <defs>
  <clipPath id="p80094f13ea">
   <rect x="7.2" y="7.2" width="396.18" height="160.776"/>
  </clipPath>
 </defs>
</svg>
